<?xml version="1.0" encoding="UTF-8"?>
<!DOCTYPE svg PUBLIC "-//W3C//DTD SVG 1.1//EN" "http://www.w3.org/Graphics/SVG/1.1/DTD/svg11.dtd">
<svg xmlns="http://www.w3.org/2000/svg" version="1.1" width="598px" height="200px" style="shape-rendering:geometricPrecision; text-rendering:geometricPrecision; image-rendering:optimizeQuality; fill-rule:evenodd; clip-rule:evenodd" xmlns:xlink="http://www.w3.org/1999/xlink">
<g><path style="opacity:0.106" fill="#281b09" d="M 17.5,25.5 C 16.8333,25.5 16.1667,25.5 15.5,25.5C 12.6146,25.1936 9.9479,25.5269 7.5,26.5C 4.90657,27.7536 2.57324,29.4202 0.5,31.5C 1.59136,28.5722 3.59136,26.4055 6.5,25C 10.3575,24.1901 14.0242,24.3567 17.5,25.5 Z"/></g>
<g><path style="opacity:0.231" fill="#48381b" d="M 15.5,25.5 C 16.1667,25.5 16.8333,25.5 17.5,25.5C 20.9922,26.4097 23.9922,28.0764 26.5,30.5C 22.4179,29.6236 18.7512,27.9569 15.5,25.5 Z"/></g>
<g><path style="opacity:0.161" fill="#3b2c12" d="M 26.5,30.5 C 30.6553,31.7417 34.322,33.7417 37.5,36.5C 35.5,35.8333 33.5,35.1667 31.5,34.5C 31.1667,34.5 30.8333,34.5 30.5,34.5C 28.8608,33.5275 27.5274,32.1942 26.5,30.5 Z"/></g>
<g><path style="opacity:1" fill="#f0bb46" d="M 30.5,34.5 C 30.8333,34.5 31.1667,34.5 31.5,34.5C 32.6798,36.913 34.6798,37.913 37.5,37.5C 37.5,38.1667 37.8333,38.5 38.5,38.5C 41.3389,41.942 45.0055,44.442 49.5,46C 50.3366,47.0113 50.67,48.1779 50.5,49.5C 48.9731,49.427 47.9731,50.0937 47.5,51.5C 46.8333,51.5 46.1667,51.5 45.5,51.5C 41.4031,53.4824 37.0697,55.1491 32.5,56.5C 27.4741,56.092 23.4741,53.9253 20.5,50C 18.1341,49.5604 15.8008,49.0604 13.5,48.5C 12.3646,46.7868 10.698,46.1201 8.5,46.5C 7.09982,45.8999 6.09982,44.8999 5.5,43.5C 1.09657,38.2324 1.76324,33.3991 7.5,29C 10.5,28.3333 13.5,28.3333 16.5,29C 21.2098,30.7841 25.8765,32.6174 30.5,34.5 Z"/></g>
<g><path style="opacity:1" fill="#aa8b49" d="M 31.5,34.5 C 33.5,35.1667 35.5,35.8333 37.5,36.5C 37.5,36.8333 37.5,37.1667 37.5,37.5C 34.6798,37.913 32.6798,36.913 31.5,34.5 Z"/></g>
<g><path style="opacity:1" fill="#d2ae58" d="M 15.5,25.5 C 18.7512,27.9569 22.4179,29.6236 26.5,30.5C 27.5274,32.1942 28.8608,33.5275 30.5,34.5C 25.8765,32.6174 21.2098,30.7841 16.5,29C 13.5,28.3333 10.5,28.3333 7.5,29C 1.76324,33.3991 1.09657,38.2324 5.5,43.5C 4.16667,43.5 2.83333,43.5 1.5,43.5C 0.507818,40.2214 0.341151,36.8881 1,33.5C 3.37219,31.2968 5.53886,28.9635 7.5,26.5C 9.9479,25.5269 12.6146,25.1936 15.5,25.5 Z"/></g>
<g><path style="opacity:0.384" fill="#46361a" d="M 37.5,36.5 C 42.7568,38.4617 47.7568,40.9617 52.5,44C 55.4017,46.8642 55.0684,49.0308 51.5,50.5C 50.1667,50.8333 48.8333,51.1667 47.5,51.5C 47.9731,50.0937 48.9731,49.427 50.5,49.5C 51.5862,49.38 52.2528,48.7133 52.5,47.5C 48.2178,44.018 43.5511,41.018 38.5,38.5C 37.8333,38.5 37.5,38.1667 37.5,37.5C 37.5,37.1667 37.5,36.8333 37.5,36.5 Z"/></g>
<g><path style="opacity:0.773" fill="#876e33" d="M 7.5,26.5 C 5.53886,28.9635 3.37219,31.2968 1,33.5C 0.341151,36.8881 0.507818,40.2214 1.5,43.5C 1.5,43.8333 1.5,44.1667 1.5,44.5C 0.833333,44.5 0.166667,44.5 -0.5,44.5C -0.5,40.1667 -0.5,35.8333 -0.5,31.5C -0.166667,31.5 0.166667,31.5 0.5,31.5C 2.57324,29.4202 4.90657,27.7536 7.5,26.5 Z"/></g>
<g><path style="opacity:1" fill="#c9a95d" d="M 38.5,38.5 C 43.5511,41.018 48.2178,44.018 52.5,47.5C 52.2528,48.7133 51.5862,49.38 50.5,49.5C 50.67,48.1779 50.3366,47.0113 49.5,46C 45.0055,44.442 41.3389,41.942 38.5,38.5 Z"/></g>
<g><path style="opacity:0.604" fill="#1e2f3c" d="M 91.5,47.5 C 89.8333,46.1667 88.1667,44.8333 86.5,43.5C 82.9221,42.4113 79.2554,42.2446 75.5,43C 69.8264,46.5025 63.8264,49.3358 57.5,51.5C 63.9755,46.2622 71.3088,42.5956 79.5,40.5C 85.1428,40.312 89.1428,42.6453 91.5,47.5 Z"/></g>
<g><path style="opacity:0.969" fill="#a68a46" d="M 1.5,44.5 C 1.5,44.1667 1.5,43.8333 1.5,43.5C 2.83333,43.5 4.16667,43.5 5.5,43.5C 6.09982,44.8999 7.09982,45.8999 8.5,46.5C 7.16667,46.5 5.83333,46.5 4.5,46.5C 4.02694,45.0937 3.02694,44.427 1.5,44.5 Z"/></g>
<g><path style="opacity:0.831" fill="#2c4861" d="M 86.5,43.5 C 88.1667,44.8333 89.8333,46.1667 91.5,47.5C 92.8333,49.5 92.8333,51.5 91.5,53.5C 90.609,54.1098 89.609,54.4431 88.5,54.5C 90.2849,50.8479 89.6182,47.8479 86.5,45.5C 86.5,44.8333 86.5,44.1667 86.5,43.5 Z"/></g>
<g><path style="opacity:0.114" fill="#351a04" d="M 1.5,44.5 C 3.02694,44.427 4.02694,45.0937 4.5,46.5C 2.97306,46.573 1.97306,45.9063 1.5,44.5 Z"/></g>
<g><path style="opacity:1" fill="#d3ad5d" d="M 8.5,46.5 C 10.698,46.1201 12.3646,46.7868 13.5,48.5C 12.8333,48.5 12.1667,48.5 11.5,48.5C 9.97306,48.573 8.97306,47.9063 8.5,46.5 Z"/></g>
<g><path style="opacity:0.031" fill="#3b2c12" d="M 4.5,46.5 C 5.83333,46.5 7.16667,46.5 8.5,46.5C 8.97306,47.9063 9.97306,48.573 11.5,48.5C 12.1667,49.5 12.8333,50.5 13.5,51.5C 10.331,50.0834 7.33098,48.4168 4.5,46.5 Z"/></g>
<g><path style="opacity:0.91" fill="#467296" d="M 86.5,43.5 C 86.5,44.1667 86.5,44.8333 86.5,45.5C 80.7168,44.011 75.0501,44.511 69.5,47C 65.5,49.6667 61.5,52.3333 57.5,55C 56.2068,55.49 54.8734,55.6567 53.5,55.5C 55.297,54.607 56.6304,53.2737 57.5,51.5C 63.8264,49.3358 69.8264,46.5025 75.5,43C 79.2554,42.2446 82.9221,42.4113 86.5,43.5 Z"/></g>
<g><path style="opacity:0.741" fill="#937743" d="M 11.5,48.5 C 12.1667,48.5 12.8333,48.5 13.5,48.5C 14.1667,49.5 14.8333,50.5 15.5,51.5C 14.8333,51.5 14.1667,51.5 13.5,51.5C 12.8333,50.5 12.1667,49.5 11.5,48.5 Z"/></g>
<g><path style="opacity:0.337" fill="#44340f" d="M 45.5,51.5 C 46.1667,51.5 46.8333,51.5 47.5,51.5C 47.5,51.8333 47.5,52.1667 47.5,52.5C 46.4863,53.6737 45.153,54.3404 43.5,54.5C 43.1667,54.5 42.8333,54.5 42.5,54.5C 43.3065,53.2719 44.3065,52.2719 45.5,51.5 Z"/></g>
<g><path style="opacity:0.01" fill="#110800" d="M 51.5,50.5 C 50.713,52.1042 49.3797,52.7709 47.5,52.5C 47.5,52.1667 47.5,51.8333 47.5,51.5C 48.8333,51.1667 50.1667,50.8333 51.5,50.5 Z"/></g>
<g><path style="opacity:0.125" fill="#3e3116" d="M 13.5,51.5 C 14.1667,51.5 14.8333,51.5 15.5,51.5C 17.632,51.5544 18.9653,52.5544 19.5,54.5C 17.1815,54.0075 15.1815,53.0075 13.5,51.5 Z"/></g>
<g><path style="opacity:1" fill="#367eb8" d="M 86.5,45.5 C 89.6182,47.8479 90.2849,50.8479 88.5,54.5C 85.5314,55.4658 83.198,57.1325 81.5,59.5C 79.5,59.5 77.5,59.5 75.5,59.5C 76.209,58.596 77.209,58.2627 78.5,58.5C 78.5,57.1667 78.5,55.8333 78.5,54.5C 80.9201,54.7076 83.2534,54.3742 85.5,53.5C 85.8333,52.8333 86.1667,52.1667 86.5,51.5C 85.2455,49.6663 84.5789,47.6663 84.5,45.5C 81.0901,45.4571 77.7568,45.9571 74.5,47C 75.8333,48.3333 75.8333,49.6667 74.5,51C 78.1641,51.7428 80.1641,50.5761 80.5,47.5C 84.4635,49.8935 84.2968,51.8935 80,53.5C 76.1493,52.4137 72.3159,52.5804 68.5,54C 66.2787,54.8619 65.112,56.0285 65,57.5C 64,57.1667 63,56.8333 62,56.5C 57.6012,57.8665 53.1012,58.5331 48.5,58.5C 50.2202,57.6923 51.8869,56.6923 53.5,55.5C 54.8734,55.6567 56.2068,55.49 57.5,55C 61.5,52.3333 65.5,49.6667 69.5,47C 75.0501,44.511 80.7168,44.011 86.5,45.5 Z"/></g>
<g><path style="opacity:1" fill="#d1ab53" d="M 13.5,48.5 C 15.8008,49.0604 18.1341,49.5604 20.5,50C 23.4741,53.9253 27.4741,56.092 32.5,56.5C 37.0697,55.1491 41.4031,53.4824 45.5,51.5C 44.3065,52.2719 43.3065,53.2719 42.5,54.5C 38.8662,55.9894 35.1996,57.3227 31.5,58.5C 28.5829,58.0362 25.9163,57.0362 23.5,55.5C 22.1667,55.1667 20.8333,54.8333 19.5,54.5C 18.9653,52.5544 17.632,51.5544 15.5,51.5C 14.8333,50.5 14.1667,49.5 13.5,48.5 Z"/></g>
<g><path style="opacity:0.608" fill="#243e53" d="M 57.5,51.5 C 56.6304,53.2737 55.297,54.607 53.5,55.5C 51.8869,56.6923 50.2202,57.6923 48.5,58.5C 47.8333,58.5 47.1667,58.5 46.5,58.5C 46.8333,57.8333 47.1667,57.1667 47.5,56.5C 50.5498,54.3084 53.8832,52.6417 57.5,51.5 Z"/></g>
<g><path style="opacity:0.078" fill="#2b1b0b" d="M 19.5,54.5 C 20.8333,54.8333 22.1667,55.1667 23.5,55.5C 23.8333,56.1667 24.1667,56.8333 24.5,57.5C 22.326,57.2503 20.6594,56.2503 19.5,54.5 Z"/></g>
<g><path style="opacity:0.227" fill="#101a29" d="M 47.5,56.5 C 47.1667,57.1667 46.8333,57.8333 46.5,58.5C 45.8333,58.5 45.1667,58.5 44.5,58.5C 44.9731,57.0937 45.9731,56.427 47.5,56.5 Z"/></g>
<g><path style="opacity:0.075" fill="#0f2234" d="M 91.5,53.5 C 89.2054,56.9906 85.8721,58.9906 81.5,59.5C 83.198,57.1325 85.5314,55.4658 88.5,54.5C 89.609,54.4431 90.609,54.1098 91.5,53.5 Z"/></g>
<g><path style="opacity:0.314" fill="#392b12" d="M 42.5,54.5 C 42.8333,54.5 43.1667,54.5 43.5,54.5C 39.9925,57.669 35.8258,59.669 31,60.5C 28.4541,60.1414 26.2874,59.1414 24.5,57.5C 24.1667,56.8333 23.8333,56.1667 23.5,55.5C 25.9163,57.0362 28.5829,58.0362 31.5,58.5C 35.1996,57.3227 38.8662,55.9894 42.5,54.5 Z"/></g>
<g><path style="opacity:1" fill="#285074" d="M 75.5,59.5 C 77.5,59.5 79.5,59.5 81.5,59.5C 80.4863,60.6737 79.153,61.3404 77.5,61.5C 75.7162,61.8925 74.0495,62.5592 72.5,63.5C 72.7822,62.2223 73.4489,61.2223 74.5,60.5C 74.5,59.8333 74.8333,59.5 75.5,59.5 Z"/></g>
<g><path style="opacity:0.698" fill="#24374c" d="M 44.5,58.5 C 42.4683,61.8564 39.4683,63.5231 35.5,63.5C 38.2402,61.4405 41.2402,59.7738 44.5,58.5 Z"/></g>
<g><path style="opacity:1" fill="#4275a2" d="M 44.5,58.5 C 45.1667,58.5 45.8333,58.5 46.5,58.5C 44.771,63.5478 41.1044,65.8812 35.5,65.5C 35.5,64.8333 35.5,64.1667 35.5,63.5C 39.4683,63.5231 42.4683,61.8564 44.5,58.5 Z"/></g>
<g><path style="opacity:0.545" fill="#1d3140" d="M 35.5,63.5 C 35.5,64.1667 35.5,64.8333 35.5,65.5C 25.7269,70.0408 16.0602,74.8741 6.5,80C 3.51895,82.4639 1.18562,85.2972 -0.5,88.5C -0.5,87.1667 -0.5,85.8333 -0.5,84.5C 10.543,75.9743 22.543,68.9743 35.5,63.5 Z"/></g>
<g><path style="opacity:1" fill="#957f43" d="M 87.5,65.5 C 84.1933,66.0508 80.8599,66.3841 77.5,66.5C 77.8417,65.6618 78.5084,65.3284 79.5,65.5C 82.3074,64.3433 84.9741,64.3433 87.5,65.5 Z"/></g>
<g><path style="opacity:0.165" fill="#362611" d="M 95.5,68.5 C 92.8598,67.5515 90.1931,66.5515 87.5,65.5C 84.9741,64.3433 82.3074,64.3433 79.5,65.5C 80.6409,63.7573 82.3076,62.7573 84.5,62.5C 88.6727,63.7496 92.3394,65.7496 95.5,68.5 Z"/></g>
<g><path style="opacity:0.992" fill="#3b719f" d="M 74.5,60.5 C 73.4489,61.2223 72.7822,62.2223 72.5,63.5C 67.3413,65.9121 62.3413,68.5788 57.5,71.5C 57.4208,70.0695 57.7542,68.7362 58.5,67.5C 61.6163,66.8156 64.6163,65.8156 67.5,64.5C 68.3857,63.675 68.719,62.675 68.5,61.5C 70.5,61.1667 72.5,60.8333 74.5,60.5 Z"/></g>
<g><path style="opacity:0.161" fill="#251b03" d="M 77.5,66.5 C 76.8333,67.1667 76.1667,67.8333 75.5,68.5C 74.8333,68.5 74.1667,68.5 73.5,68.5C 74.287,66.8958 75.6203,66.2291 77.5,66.5 Z"/></g>
<g><path style="opacity:0.067" fill="#231f04" d="M 95.5,68.5 C 97.3797,68.2291 98.713,68.8958 99.5,70.5C 97.847,70.3404 96.5137,69.6737 95.5,68.5 Z"/></g>
<g><path style="opacity:0.588" fill="#5e4c1f" d="M 73.5,68.5 C 74.1667,68.5 74.8333,68.5 75.5,68.5C 74.4863,69.6737 73.153,70.3404 71.5,70.5C 71.5,70.1667 71.5,69.8333 71.5,69.5C 71.8417,68.6618 72.5084,68.3284 73.5,68.5 Z"/></g>
<g><path style="opacity:1" fill="#e1b351" d="M 87.5,65.5 C 87.8333,66.1667 88.1667,66.8333 88.5,67.5C 83.5835,68.9396 78.5835,70.4396 73.5,72C 69.8637,73.101 68.8637,75.2677 70.5,78.5C 69.1667,78.5 67.8333,78.5 66.5,78.5C 65.1667,76.8333 65.1667,75.1667 66.5,73.5C 68.0269,73.573 69.0269,72.9063 69.5,71.5C 70.1667,71.1667 70.8333,70.8333 71.5,70.5C 73.153,70.3404 74.4863,69.6737 75.5,68.5C 76.1667,67.8333 76.8333,67.1667 77.5,66.5C 80.8599,66.3841 84.1933,66.0508 87.5,65.5 Z"/></g>
<g><path style="opacity:1" fill="#b8974e" d="M 87.5,65.5 C 90.1931,66.5515 92.8598,67.5515 95.5,68.5C 96.5137,69.6737 97.847,70.3404 99.5,70.5C 100.492,70.3284 101.158,70.6618 101.5,71.5C 102.539,73.5311 104.205,74.8645 106.5,75.5C 108.853,76.3403 110.853,77.6736 112.5,79.5C 103.908,76.5376 95.9085,72.5376 88.5,67.5C 88.1667,66.8333 87.8333,66.1667 87.5,65.5 Z"/></g>
<g><path style="opacity:1" fill="#3581c0" d="M 75.5,59.5 C 74.8333,59.5 74.5,59.8333 74.5,60.5C 72.5,60.8333 70.5,61.1667 68.5,61.5C 68.719,62.675 68.3857,63.675 67.5,64.5C 64.6163,65.8156 61.6163,66.8156 58.5,67.5C 57.7542,68.7362 57.4208,70.0695 57.5,71.5C 57.1667,71.5 56.8333,71.5 56.5,71.5C 53.1362,70.7893 50.8029,71.956 49.5,75C 44.3596,76.0644 39.3596,76.5644 34.5,76.5C 34.5,77.8333 34.5,79.1667 34.5,80.5C 33.5,80.5 32.5,80.5 31.5,80.5C 31.5,81.8333 31.5,83.1667 31.5,84.5C 28.4461,84.354 26.4461,85.6874 25.5,88.5C 22.7939,88.6878 20.4605,89.6878 18.5,91.5C 17.2505,92.7775 15.7505,93.7775 14,94.5C 13.2888,96.3668 13.7888,97.8668 15.5,99C 13.36,99.9733 11.6933,101.473 10.5,103.5C 9.5,103 8.5,102.5 7.5,102C 9.49703,100.847 9.83036,99.3469 8.5,97.5C 7.15017,98.9501 5.4835,99.6168 3.5,99.5C 2.22543,94.883 2.22543,90.2164 3.5,85.5C 5.11511,84.846 6.78178,84.346 8.5,84C 9.16667,82.6667 9.83333,81.3333 10.5,80C 18.6713,76.3845 26.6713,72.3845 34.5,68C 35.2524,67.3292 35.5858,66.4959 35.5,65.5C 41.1044,65.8812 44.771,63.5478 46.5,58.5C 47.1667,58.5 47.8333,58.5 48.5,58.5C 53.1012,58.5331 57.6012,57.8665 62,56.5C 63,56.8333 64,57.1667 65,57.5C 65.112,56.0285 66.2787,54.8619 68.5,54C 72.3159,52.5804 76.1493,52.4137 80,53.5C 84.2968,51.8935 84.4635,49.8935 80.5,47.5C 80.1641,50.5761 78.1641,51.7428 74.5,51C 75.8333,49.6667 75.8333,48.3333 74.5,47C 77.7568,45.9571 81.0901,45.4571 84.5,45.5C 84.5789,47.6663 85.2455,49.6663 86.5,51.5C 86.1667,52.1667 85.8333,52.8333 85.5,53.5C 83.2534,54.3742 80.9201,54.7076 78.5,54.5C 78.5,55.8333 78.5,57.1667 78.5,58.5C 77.209,58.2627 76.209,58.596 75.5,59.5 Z"/></g>
<g><path style="opacity:0.133" fill="#211b03" d="M 71.5,69.5 C 71.5,69.8333 71.5,70.1667 71.5,70.5C 70.8333,70.8333 70.1667,71.1667 69.5,71.5C 68.8333,71.5 68.1667,71.5 67.5,71.5C 68.5137,70.3263 69.847,69.6596 71.5,69.5 Z"/></g>
<g><path style="opacity:1" fill="#3f729c" d="M 35.5,65.5 C 35.5858,66.4959 35.2524,67.3292 34.5,68C 26.6713,72.3845 18.6713,76.3845 10.5,80C 9.83333,81.3333 9.16667,82.6667 8.5,84C 6.78178,84.346 5.11511,84.846 3.5,85.5C 2.22543,90.2164 2.22543,94.883 3.5,99.5C 6.32251,102.404 9.32251,105.071 12.5,107.5C 10.4418,106.067 8.1085,105.4 5.5,105.5C 3.23872,102.635 1.23872,99.6351 -0.5,96.5C -0.5,93.8333 -0.5,91.1667 -0.5,88.5C 1.18562,85.2972 3.51895,82.4639 6.5,80C 16.0602,74.8741 25.7269,70.0408 35.5,65.5 Z"/></g>
<g><path style="opacity:0.051" fill="#1f1a0a" d="M 67.5,71.5 C 67.1667,72.1667 66.8333,72.8333 66.5,73.5C 63.4969,74.17 62.8303,75.8367 64.5,78.5C 61.4003,74.8019 62.4003,72.4685 67.5,71.5 Z"/></g>
<g><path style="opacity:0.839" fill="#86703f" d="M 67.5,71.5 C 68.1667,71.5 68.8333,71.5 69.5,71.5C 69.0269,72.9063 68.0269,73.573 66.5,73.5C 66.8333,72.8333 67.1667,72.1667 67.5,71.5 Z"/></g>
<g><path style="opacity:0.561" fill="#6b572b" d="M 101.5,71.5 C 103.153,71.6596 104.486,72.3263 105.5,73.5C 105.833,74.1667 106.167,74.8333 106.5,75.5C 104.205,74.8645 102.539,73.5311 101.5,71.5 Z"/></g>
<g><path style="opacity:1" fill="#3977a9" d="M 56.5,71.5 C 46.4451,77.5269 36.1117,83.1935 25.5,88.5C 26.4461,85.6874 28.4461,84.354 31.5,84.5C 31.5,83.1667 31.5,81.8333 31.5,80.5C 32.5,80.5 33.5,80.5 34.5,80.5C 34.5,79.1667 34.5,77.8333 34.5,76.5C 39.3596,76.5644 44.3596,76.0644 49.5,75C 50.8029,71.956 53.1362,70.7893 56.5,71.5 Z"/></g>
<g><path style="opacity:1" fill="#a28c51" d="M 66.5,73.5 C 65.1667,75.1667 65.1667,76.8333 66.5,78.5C 65.8333,78.5 65.1667,78.5 64.5,78.5C 62.8303,75.8367 63.4969,74.17 66.5,73.5 Z"/></g>
<g><path style="opacity:0.012" fill="#13151a" d="M 222.5,76.5 C 224.5,76.5 225.5,77.5 225.5,79.5C 224.167,78.8333 223.167,77.8333 222.5,76.5 Z"/></g>
<g><path style="opacity:0.955" fill="#375671" d="M 222.5,76.5 C 223.167,77.8333 224.167,78.8333 225.5,79.5C 226.833,81.5 226.833,83.5 225.5,85.5C 215.411,89.4112 212.411,86.4112 216.5,76.5C 218.5,75.1667 220.5,75.1667 222.5,76.5 Z"/></g>
<g><path style="opacity:0.204" fill="#362710" d="M 105.5,73.5 C 111.738,75.2721 116.404,78.9387 119.5,84.5C 117.5,82.8333 115.5,81.1667 113.5,79.5C 113.167,79.5 112.833,79.5 112.5,79.5C 110.853,77.6736 108.853,76.3403 106.5,75.5C 106.167,74.8333 105.833,74.1667 105.5,73.5 Z"/></g>
<g><path style="opacity:0.102" fill="#2d240c" d="M 64.5,78.5 C 65.1667,78.5 65.8333,78.5 66.5,78.5C 66.8333,79.1667 67.1667,79.8333 67.5,80.5C 65.9731,80.573 64.9731,79.9063 64.5,78.5 Z"/></g>
<g><path style="opacity:0.969" fill="#8e723d" d="M 66.5,78.5 C 67.8333,78.5 69.1667,78.5 70.5,78.5C 71.7888,79.6366 72.7888,80.9699 73.5,82.5C 73.5,82.8333 73.5,83.1667 73.5,83.5C 71.1815,83.0075 69.1815,82.0075 67.5,80.5C 67.1667,79.8333 66.8333,79.1667 66.5,78.5 Z"/></g>
<g><path style="opacity:1" fill="#f0bc46" d="M 88.5,67.5 C 95.9085,72.5376 103.908,76.5376 112.5,79.5C 112.833,79.5 113.167,79.5 113.5,79.5C 113.66,81.153 114.326,82.4863 115.5,83.5C 115.722,86.3903 115.055,89.057 113.5,91.5C 116.571,92.0709 117.904,93.9042 117.5,97C 116.713,99.8105 115.88,102.644 115,105.5C 113.266,106.249 111.433,106.749 109.5,107C 104.921,111.098 100.255,114.931 95.5,118.5C 93.5,119.167 91.5,119.833 89.5,120.5C 88.448,120.649 87.448,120.483 86.5,120C 85.8448,118.513 84.8448,117.347 83.5,116.5C 80.9607,117.115 78.4607,117.782 76,118.5C 75.586,118.043 75.086,117.709 74.5,117.5C 73.4495,118.885 72.1161,119.885 70.5,120.5C 68.2534,119.626 65.9201,119.292 63.5,119.5C 63.4729,117.801 62.8062,116.467 61.5,115.5C 64.5289,113.661 67.8622,112.327 71.5,111.5C 72.5244,110.148 73.5244,108.815 74.5,107.5C 81.0081,103.856 87.6748,100.356 94.5,97C 95.9656,93.9423 94.9656,92.109 91.5,91.5C 86.312,86.906 80.312,83.906 73.5,82.5C 72.7888,80.9699 71.7888,79.6366 70.5,78.5C 68.8637,75.2677 69.8637,73.101 73.5,72C 78.5835,70.4396 83.5835,68.9396 88.5,67.5 Z"/></g>
<g><path style="opacity:1" fill="#3b78ac" d="M 392.5,78.5 C 393.822,78.33 394.989,78.6634 396,79.5C 396.499,83.1516 396.665,86.8183 396.5,90.5C 388.415,90.0989 380.415,90.5989 372.5,92C 371.667,92.8333 370.833,93.6667 370,94.5C 369.185,99.3522 369.352,104.019 370.5,108.5C 370.286,110.144 370.62,111.644 371.5,113C 375.027,113.808 378.36,113.641 381.5,112.5C 381.833,112.5 382.167,112.5 382.5,112.5C 386.548,112.605 390.548,112.272 394.5,111.5C 396.5,111.5 398.5,111.5 400.5,111.5C 400.806,114.385 400.473,117.052 399.5,119.5C 388.258,121.133 376.925,121.799 365.5,121.5C 363.82,118.14 362.153,114.807 360.5,111.5C 363.703,111.682 365.536,113.348 366,116.5C 366.739,117.574 367.739,118.241 369,118.5C 378.617,117.932 388.45,117.932 398.5,118.5C 398.5,117.167 398.5,115.833 398.5,114.5C 388.584,114.819 378.75,114.486 369,113.5C 368.663,105.227 368.496,97.0603 368.5,89C 370.271,88.963 372.104,89.1297 374,89.5C 376.583,89.071 379.083,88.4044 381.5,87.5C 385.601,89.1811 389.935,89.8478 394.5,89.5C 394.5,87.8333 394.5,86.1667 394.5,84.5C 394.5,83.1667 394.5,81.8333 394.5,80.5C 387.167,80.5 379.833,80.5 372.5,80.5C 371.833,80.5 371.167,80.5 370.5,80.5C 371.609,79.71 372.942,79.21 374.5,79C 380.491,78.5005 386.491,78.3338 392.5,78.5 Z"/></g>
<g><path style="opacity:0.4" fill="#172532" d="M 178.5,79.5 C 169.484,76.9461 160.484,76.9461 151.5,79.5C 151.167,79.5 150.833,79.5 150.5,79.5C 149.25,79.5774 148.417,80.244 148,81.5C 146.999,93.1839 145.832,104.851 144.5,116.5C 144.54,118.429 144.873,120.262 145.5,122C 148.146,122.497 150.813,122.664 153.5,122.5C 150.435,123.818 147.269,123.818 144,122.5C 144.386,108.147 145.386,93.814 147,79.5C 149.266,78.0437 151.766,77.2104 154.5,77C 161.833,76.3333 169.167,76.3333 176.5,77C 177.756,77.4169 178.423,78.2502 178.5,79.5 Z"/></g>
<g><path style="opacity:0.424" fill="#1a2c3d" d="M 203.5,122.5 C 204.314,107.174 204.981,91.8403 205.5,76.5C 201.452,76.3946 197.452,76.7279 193.5,77.5C 193.183,81.7016 193.517,85.7016 194.5,89.5C 194.5,100.5 194.5,111.5 194.5,122.5C 194.167,122.5 193.833,122.5 193.5,122.5C 192.567,107.647 192.067,92.647 192,77.5C 195.66,75.9754 199.493,74.9754 203.5,74.5C 206.339,75.0019 207.672,76.6686 207.5,79.5C 206.444,94.0112 205.111,108.345 203.5,122.5 Z"/></g>
<g><path style="opacity:1" fill="#3d6688" d="M 203.5,122.5 C 203.167,122.5 202.833,122.5 202.5,122.5C 202.5,118.5 202.5,114.5 202.5,110.5C 203.454,99.8848 203.787,89.2181 203.5,78.5C 200.552,78.2229 197.719,78.5562 195,79.5C 194.502,82.8168 194.335,86.1501 194.5,89.5C 193.517,85.7016 193.183,81.7016 193.5,77.5C 197.452,76.7279 201.452,76.3946 205.5,76.5C 204.981,91.8403 204.314,107.174 203.5,122.5 Z"/></g>
<g><path style="opacity:1" fill="#3579b2" d="M 217.5,78.5 C 222.894,77.5545 224.561,79.5545 222.5,84.5C 218.891,86.3192 216.558,85.3192 215.5,81.5C 215.942,80.2613 216.609,79.2613 217.5,78.5 Z"/></g>
<g><path style="opacity:0.192" fill="#101a21" d="M 369.5,77.5 C 367.54,79.1563 365.54,80.823 363.5,82.5C 364.268,79.4384 366.268,77.7717 369.5,77.5 Z"/></g>
<g><path style="opacity:1" fill="#3383c6" d="M 372.5,80.5 C 379.833,80.5 387.167,80.5 394.5,80.5C 394.5,81.8333 394.5,83.1667 394.5,84.5C 392.896,85.287 392.229,86.6203 392.5,88.5C 390.396,88.7989 388.396,88.4656 386.5,87.5C 386.113,86.2801 385.28,85.6135 384,85.5C 380.378,86.3943 376.878,86.7276 373.5,86.5C 371.261,84.8669 370.928,82.8669 372.5,80.5 Z"/></g>
<g><path style="opacity:0.084" fill="#0e1925" d="M 269.5,79.5 C 269.443,80.609 269.11,81.609 268.5,82.5C 267.833,82.5 267.167,82.5 266.5,82.5C 261.5,82.5 256.5,82.5 251.5,82.5C 256.651,81.6733 261.984,81.1733 267.5,81C 268.044,80.2828 268.711,79.7828 269.5,79.5 Z"/></g>
<g><path style="opacity:0.976" fill="#ad8f4f" d="M 113.5,79.5 C 115.5,81.1667 117.5,82.8333 119.5,84.5C 119.5,85.8333 119.5,87.1667 119.5,88.5C 118.872,86.3384 117.539,84.6718 115.5,83.5C 114.326,82.4863 113.66,81.153 113.5,79.5 Z"/></g>
<g><path style="opacity:1" fill="#416b8d" d="M 392.5,77.5 C 392.5,77.8333 392.5,78.1667 392.5,78.5C 386.491,78.3338 380.491,78.5005 374.5,79C 372.942,79.21 371.609,79.71 370.5,80.5C 369.504,80.4142 368.671,80.7476 368,81.5C 365.585,85.6208 363.085,89.6208 360.5,93.5C 361.2,89.7627 362.2,86.0961 363.5,82.5C 365.54,80.823 367.54,79.1563 369.5,77.5C 377.329,76.5005 384.996,76.5005 392.5,77.5 Z"/></g>
<g><path style="opacity:0.271" fill="#14212b" d="M 551.5,83.5 C 545.516,82.6679 539.516,82.5012 533.5,83C 531.277,83.5662 529.277,84.3995 527.5,85.5C 526.167,85.5 524.833,85.5 523.5,85.5C 526.135,83.672 529.135,82.5053 532.5,82C 537.5,81.3333 542.5,81.3333 547.5,82C 549.058,82.21 550.391,82.71 551.5,83.5 Z"/></g>
<g><path style="opacity:0.286" fill="#152435" d="M 250.5,82.5 C 248.162,84.0395 245.495,84.7062 242.5,84.5C 244.905,83.2318 247.572,82.5651 250.5,82.5 Z"/></g>
<g><path style="opacity:0.216" fill="#10212c" d="M 304.5,82.5 C 304.167,83.1667 303.833,83.8333 303.5,84.5C 302.518,85.1408 301.518,85.8075 300.5,86.5C 299.702,86.0431 299.369,85.3764 299.5,84.5C 301.167,83.8333 302.833,83.1667 304.5,82.5 Z"/></g>
<g><path style="opacity:0.725" fill="#273f4f" d="M 317.5,81.5 C 317.5,81.8333 317.5,82.1667 317.5,82.5C 312.57,82.034 307.903,82.7006 303.5,84.5C 303.833,83.8333 304.167,83.1667 304.5,82.5C 306.634,80.9666 309.134,80.2999 312,80.5C 314.033,80.5056 315.866,80.8389 317.5,81.5 Z"/></g>
<g><path style="opacity:1" fill="#406e95" d="M 317.5,82.5 C 319.969,83.5686 322.302,84.9019 324.5,86.5C 325.377,95.1333 325.711,103.8 325.5,112.5C 324.167,112.5 322.833,112.5 321.5,112.5C 322.209,111.596 323.209,111.263 324.5,111.5C 324.886,103.388 324.219,95.3883 322.5,87.5C 318.023,84.0713 313.023,83.0713 307.5,84.5C 305.872,86.3195 303.872,87.6528 301.5,88.5C 304.785,89.3236 308.118,89.8236 311.5,90C 312.823,90.8159 313.489,91.9826 313.5,93.5C 313.167,93.5 312.833,93.5 312.5,93.5C 311.833,93.5 311.167,93.5 310.5,93.5C 309.688,92.0069 308.355,91.3402 306.5,91.5C 304.022,91.7717 301.689,92.4384 299.5,93.5C 299.93,90.1379 298.93,87.3046 296.5,85C 293.975,84.1041 291.808,84.6041 290,86.5C 291.088,94.3238 291.588,102.324 291.5,110.5C 293.5,110.5 295.5,110.5 297.5,110.5C 297.179,104.974 297.512,99.6405 298.5,94.5C 298.5,100.167 298.5,105.833 298.5,111.5C 295.833,111.5 293.167,111.5 290.5,111.5C 290.927,105.886 290.26,100.553 288.5,95.5C 288.5,91.5 288.5,87.5 288.5,83.5C 291.833,83.5 295.167,83.5 298.5,83.5C 299.167,83.5 299.5,83.8333 299.5,84.5C 299.369,85.3764 299.702,86.0431 300.5,86.5C 301.518,85.8075 302.518,85.1408 303.5,84.5C 307.903,82.7006 312.57,82.034 317.5,82.5 Z"/></g>
<g><path style="opacity:0.533" fill="#2c4354" d="M 444.5,83.5 C 444.5,83.8333 444.5,84.1667 444.5,84.5C 435.318,84.1734 426.318,84.5067 417.5,85.5C 416.167,85.5 414.833,85.5 413.5,85.5C 414.5,84.8333 415.5,84.1667 416.5,83.5C 425.803,82.1909 435.137,82.1909 444.5,83.5 Z"/></g>
<g><path style="opacity:0.29" fill="#1d2c3c" d="M 509.5,112.5 C 509.5,100.833 509.5,89.1667 509.5,77.5C 505.5,77.5 501.5,77.5 497.5,77.5C 497.5,79.5 497.5,81.5 497.5,83.5C 496.539,81.7354 496.205,79.7354 496.5,77.5C 500.821,75.5669 505.321,75.2336 510,76.5C 510.826,88.6738 510.66,100.674 509.5,112.5 Z"/></g>
<g><path style="opacity:0.173" fill="#0d1d31" d="M 317.5,82.5 C 317.5,82.1667 317.5,81.8333 317.5,81.5C 319.783,81.6079 321.783,82.4412 323.5,84C 324.252,84.6708 324.586,85.5041 324.5,86.5C 322.302,84.9019 319.969,83.5686 317.5,82.5 Z"/></g>
<g><path style="opacity:0.169" fill="#17242d" d="M 444.5,84.5 C 444.5,84.1667 444.5,83.8333 444.5,83.5C 446.857,83.3367 449.19,83.5034 451.5,84C 453.544,84.4983 454.878,85.665 455.5,87.5C 452.238,85.1203 448.571,84.1203 444.5,84.5 Z"/></g>
<g><path style="opacity:0.122" fill="#3a200a" d="M 75.5,84.5 C 77.674,84.7497 79.3406,85.7497 80.5,87.5C 78.326,87.2503 76.6594,86.2503 75.5,84.5 Z"/></g>
<g><path style="opacity:1" fill="#b0904b" d="M 73.5,82.5 C 80.312,83.906 86.312,86.906 91.5,91.5C 90.1667,91.5 88.8333,91.5 87.5,91.5C 86.5144,89.5923 84.8477,88.5923 82.5,88.5C 81.5084,88.6716 80.8417,88.3382 80.5,87.5C 79.3406,85.7497 77.674,84.7497 75.5,84.5C 74.5084,84.6716 73.8417,84.3382 73.5,83.5C 73.5,83.1667 73.5,82.8333 73.5,82.5 Z"/></g>
<g><path style="opacity:0.961" fill="#486a85" d="M 250.5,82.5 C 250.833,82.5 251.167,82.5 251.5,82.5C 256.5,82.5 261.5,82.5 266.5,82.5C 259.581,83.2761 252.581,84.4427 245.5,86C 243.422,87.0768 241.422,88.2434 239.5,89.5C 240.075,87.5887 241.075,85.922 242.5,84.5C 245.495,84.7062 248.162,84.0395 250.5,82.5 Z"/></g>
<g><path style="opacity:0.222" fill="#14212d" d="M 372.5,94.5 C 373.681,92.9328 375.347,92.0995 377.5,92C 384.184,91.4536 390.851,91.6203 397.5,92.5C 397.666,87.8215 397.499,83.1548 397,78.5C 395.644,77.6198 394.144,77.2865 392.5,77.5C 384.996,76.5005 377.329,76.5005 369.5,77.5C 378.653,75.0492 387.986,74.8825 397.5,77C 398.894,77.956 399.561,79.2894 399.5,81C 398.599,84.9076 398.265,88.741 398.5,92.5C 389.766,91.8402 381.099,92.5069 372.5,94.5 Z"/></g>
<g><path style="opacity:1" fill="#437aa7" d="M 413.5,85.5 C 414.833,85.5 416.167,85.5 417.5,85.5C 427.681,85.1726 437.681,85.506 447.5,86.5C 436.451,86.1499 425.451,86.6499 414.5,88C 412.152,95.6188 411.152,103.452 411.5,111.5C 410.346,105.013 410.179,98.3464 411,91.5C 411.037,89.0261 411.87,87.0261 413.5,85.5 Z"/></g>
<g><path style="opacity:0.922" fill="#49718e" d="M 417.5,85.5 C 426.318,84.5067 435.318,84.1734 444.5,84.5C 448.571,84.1203 452.238,85.1203 455.5,87.5C 455.5,89.5 455.5,91.5 455.5,93.5C 454.833,92.5 454.167,91.5 453.5,90.5C 452.292,87.9558 450.292,86.6225 447.5,86.5C 437.681,85.506 427.681,85.1726 417.5,85.5 Z"/></g>
<g><path style="opacity:0.694" fill="#3e6686" d="M 509.5,112.5 C 509.5,112.833 509.5,113.167 509.5,113.5C 508.833,116.5 508.167,119.5 507.5,122.5C 508.641,108.007 508.641,93.6733 507.5,79.5C 504.665,78.2138 501.832,78.2138 499,79.5C 498.501,84.8229 498.334,90.1563 498.5,95.5C 488.895,93.5079 479.562,94.3412 470.5,98C 471.167,98.3333 471.833,98.6667 472.5,99C 470.714,99.7845 469.214,100.951 468,102.5C 466.71,106.73 466.21,111.064 466.5,115.5C 465.107,113.489 464.44,111.155 464.5,108.5C 465.179,105.494 465.846,102.494 466.5,99.5C 468.167,98.5 469.5,97.1667 470.5,95.5C 473.785,95.0719 476.785,94.0719 479.5,92.5C 485.509,92.701 491.509,93.0343 497.5,93.5C 497.5,90.1667 497.5,86.8333 497.5,83.5C 497.5,81.5 497.5,79.5 497.5,77.5C 501.5,77.5 505.5,77.5 509.5,77.5C 509.5,89.1667 509.5,100.833 509.5,112.5 Z M 499.5,103.5 C 499.5,104.5 499.5,105.5 499.5,106.5C 499.739,108.467 499.406,110.301 498.5,112C 492.312,113.607 486.145,113.774 480,112.5C 479.503,110.19 479.337,107.857 479.5,105.5C 479.918,104.778 480.584,104.278 481.5,104C 487.491,103.501 493.491,103.334 499.5,103.5 Z"/></g>
<g><path style="opacity:0.125" fill="#1d262c" d="M 551.5,83.5 C 555.248,83.6944 557.915,85.361 559.5,88.5C 556.797,86.8193 554.131,85.1526 551.5,83.5 Z"/></g>
<g><path style="opacity:0.263" fill="#122434" d="M 523.5,85.5 C 517.862,92.4709 516.028,100.471 518,109.5C 518.278,110.416 518.778,111.082 519.5,111.5C 519.622,114.292 520.956,116.292 523.5,117.5C 523.5,117.833 523.5,118.167 523.5,118.5C 521.629,118.141 520.129,117.141 519,115.5C 514.419,106.491 514.419,97.491 519,88.5C 520.129,86.8588 521.629,85.8588 523.5,85.5 Z"/></g>
<g><path style="opacity:0.341" fill="#132432" d="M 216.5,76.5 C 212.411,86.4112 215.411,89.4112 225.5,85.5C 222.858,89.1029 219.525,89.9362 215.5,88C 211.245,83.5172 211.578,79.6839 216.5,76.5 Z"/></g>
<g><path style="opacity:1" fill="#3a7eb6" d="M 321.5,112.5 C 318.833,112.5 316.167,112.5 313.5,112.5C 313.5,106.167 313.5,99.8333 313.5,93.5C 313.489,91.9826 312.823,90.8159 311.5,90C 308.118,89.8236 304.785,89.3236 301.5,88.5C 303.872,87.6528 305.872,86.3195 307.5,84.5C 313.023,83.0713 318.023,84.0713 322.5,87.5C 324.219,95.3883 324.886,103.388 324.5,111.5C 323.209,111.263 322.209,111.596 321.5,112.5 Z"/></g>
<g><path style="opacity:1" fill="#3a72a2" d="M 552.5,96.5 C 552.768,94.901 552.434,93.5676 551.5,92.5C 550.128,91.4884 548.795,90.4884 547.5,89.5C 543.019,88.3516 538.352,88.1849 533.5,89C 531.679,91.456 531.012,94.2893 531.5,97.5C 531.167,97.5 530.833,97.5 530.5,97.5C 529.523,94.7131 529.19,91.7131 529.5,88.5C 525.991,88.3709 523.158,89.7042 521,92.5C 519.743,98.7688 519.243,105.102 519.5,111.5C 518.778,111.082 518.278,110.416 518,109.5C 516.028,100.471 517.862,92.4709 523.5,85.5C 524.833,85.5 526.167,85.5 527.5,85.5C 536.302,83.8091 544.969,84.3091 553.5,87C 554.966,87.6355 556.3,88.4688 557.5,89.5C 558.487,92.7683 558.82,96.1016 558.5,99.5C 556.473,99.6621 554.473,99.4955 552.5,99C 553.774,98.0228 553.774,97.1894 552.5,96.5 Z M 547.5,89.5 C 548.795,90.4884 550.128,91.4884 551.5,92.5C 551.5,93.5 551.5,94.5 551.5,95.5C 545.642,95.1778 539.975,95.5111 534.5,96.5C 532.255,95.1722 531.922,93.3388 533.5,91C 538.036,89.6211 542.703,89.1211 547.5,89.5 Z"/></g>
<g><path style="opacity:0.765" fill="#3b5e7b" d="M 392.5,78.5 C 392.5,78.1667 392.5,77.8333 392.5,77.5C 394.144,77.2865 395.644,77.6198 397,78.5C 397.499,83.1548 397.666,87.8215 397.5,92.5C 390.851,91.6203 384.184,91.4536 377.5,92C 375.347,92.0995 373.681,92.9328 372.5,94.5C 372.5,95.1667 372.167,95.5 371.5,95.5C 370.515,99.6344 370.182,103.968 370.5,108.5C 369.352,104.019 369.185,99.3522 370,94.5C 370.833,93.6667 371.667,92.8333 372.5,92C 380.415,90.5989 388.415,90.0989 396.5,90.5C 396.665,86.8183 396.499,83.1516 396,79.5C 394.989,78.6634 393.822,78.33 392.5,78.5 Z"/></g>
<g><path style="opacity:0.067" fill="#372810" d="M 82.5,88.5 C 84.8477,88.5923 86.5144,89.5923 87.5,91.5C 85.326,91.2503 83.6594,90.2503 82.5,88.5 Z"/></g>
<g><path style="opacity:1" fill="#e1b652" d="M 115.5,83.5 C 117.539,84.6718 118.872,86.3384 119.5,88.5C 120.006,94.4686 119.006,100.135 116.5,105.5C 114.664,108.756 111.997,111.089 108.5,112.5C 105.331,113.917 102.331,115.583 99.5,117.5C 98.0413,117.433 96.7079,117.766 95.5,118.5C 100.255,114.931 104.921,111.098 109.5,107C 111.433,106.749 113.266,106.249 115,105.5C 115.88,102.644 116.713,99.8105 117.5,97C 117.904,93.9042 116.571,92.0709 113.5,91.5C 115.055,89.057 115.722,86.3903 115.5,83.5 Z"/></g>
<g><path style="opacity:0.404" fill="#182f43" d="M 547.5,89.5 C 542.703,89.1211 538.036,89.6211 533.5,91C 531.922,93.3388 532.255,95.1722 534.5,96.5C 540.167,96.5 545.833,96.5 551.5,96.5C 545.021,97.4907 538.354,97.824 531.5,97.5C 531.012,94.2893 531.679,91.456 533.5,89C 538.352,88.1849 543.019,88.3516 547.5,89.5 Z"/></g>
<g><path style="opacity:0.886" fill="#3b6485" d="M 150.5,79.5 C 149.631,81.717 149.298,84.0504 149.5,86.5C 147.599,97.2861 146.765,108.286 147,119.5C 151.727,121.33 153.893,119.663 153.5,114.5C 153.5,113.5 153.5,112.5 153.5,111.5C 159.926,110.88 165.926,111.547 171.5,113.5C 166.167,113.5 160.833,113.5 155.5,113.5C 155.5,114.5 155.5,115.5 155.5,116.5C 154.262,118.214 153.595,120.214 153.5,122.5C 150.813,122.664 148.146,122.497 145.5,122C 144.873,120.262 144.54,118.429 144.5,116.5C 145.832,104.851 146.999,93.1839 148,81.5C 148.417,80.244 149.25,79.5774 150.5,79.5 Z"/></g>
<g><path style="opacity:0.914" fill="#446a8b" d="M 178.5,79.5 C 178.472,84.8617 178.806,90.1951 179.5,95.5C 177.785,90.2252 176.119,84.7252 174.5,79C 166.822,78.5229 159.155,78.6895 151.5,79.5C 160.484,76.9461 169.484,76.9461 178.5,79.5 Z"/></g>
<g><path style="opacity:0.387" fill="#3c2f12" d="M 119.5,84.5 C 123.5,90.8333 123.5,97.1667 119.5,103.5C 120.691,98.3554 120.691,93.3554 119.5,88.5C 119.5,87.1667 119.5,85.8333 119.5,84.5 Z"/></g>
<g><path style="opacity:1" fill="#3580c0" d="M 276.5,121.5 C 275.85,123.435 275.517,125.435 275.5,127.5C 265.395,130.175 255.062,131.175 244.5,130.5C 244.5,128.5 244.5,126.5 244.5,124.5C 251.841,124.666 259.174,124.5 266.5,124C 268.324,123.34 269.657,122.173 270.5,120.5C 271.748,119.666 272.415,118.333 272.5,116.5C 270.528,114.638 269.528,111.638 269.5,107.5C 270.458,107.047 271.292,106.381 272,105.5C 272.898,100.698 273.064,96.0312 272.5,91.5C 268.299,91.558 267.799,90.558 271,88.5C 271.684,87.2161 271.517,86.0495 270.5,85C 272.473,84.5045 274.473,84.3379 276.5,84.5C 276.5,96.8333 276.5,109.167 276.5,121.5 Z"/></g>
<g><path style="opacity:0.173" fill="#0d1f2f" d="M 496.5,77.5 C 496.205,79.7354 496.539,81.7354 497.5,83.5C 497.5,86.8333 497.5,90.1667 497.5,93.5C 491.509,93.0343 485.509,92.701 479.5,92.5C 485.005,91.5009 490.672,91.5009 496.5,92.5C 495.871,87.3181 495.871,82.3181 496.5,77.5 Z"/></g>
<g><path style="opacity:0.875" fill="#a08649" d="M 119.5,88.5 C 120.691,93.3554 120.691,98.3554 119.5,103.5C 118.5,104.167 117.5,104.833 116.5,105.5C 119.006,100.135 120.006,94.4686 119.5,88.5 Z"/></g>
<g><path style="opacity:0.271" fill="#12273a" d="M 77.5,61.5 C 60.0489,72.3989 42.0489,82.5655 23.5,92C 22.1667,92.6667 22.1667,93.3333 23.5,94C 27.5599,95.6891 31.2266,97.8558 34.5,100.5C 29.5265,99.5644 25.0265,97.5644 21,94.5C 20.3333,93.5 20.3333,92.5 21,91.5C 22.6516,90.6006 24.1516,89.6006 25.5,88.5C 36.1117,83.1935 46.4451,77.5269 56.5,71.5C 56.8333,71.5 57.1667,71.5 57.5,71.5C 62.3413,68.5788 67.3413,65.9121 72.5,63.5C 74.0495,62.5592 75.7162,61.8925 77.5,61.5 Z"/></g>
<g><path style="opacity:1" fill="#387db7" d="M 276.5,121.5 C 276.5,109.167 276.5,96.8333 276.5,84.5C 274.473,84.3379 272.473,84.5045 270.5,85C 271.517,86.0495 271.684,87.2161 271,88.5C 267.799,90.558 268.299,91.558 272.5,91.5C 273.064,96.0312 272.898,100.698 272,105.5C 271.292,106.381 270.458,107.047 269.5,107.5C 269.528,111.638 270.528,114.638 272.5,116.5C 272.415,118.333 271.748,119.666 270.5,120.5C 270.795,118.265 270.461,116.265 269.5,114.5C 261.316,114.826 253.316,114.492 245.5,113.5C 243.782,112.776 241.948,112.109 240,111.5C 238.809,106.233 238.309,100.899 238.5,95.5C 238.325,93.3792 238.659,91.3792 239.5,89.5C 241.422,88.2434 243.422,87.0768 245.5,86C 252.581,84.4427 259.581,83.2761 266.5,82.5C 267.167,82.5 267.833,82.5 268.5,82.5C 271.417,81.7089 274.25,81.7089 277,82.5C 277.827,95.6732 277.66,108.673 276.5,121.5 Z M 266.5,93.5 C 266.833,93.5 267.167,93.5 267.5,93.5C 268.329,96.4686 268.495,99.4686 268,102.5C 267.093,104.609 265.593,105.942 263.5,106.5C 259.818,106.665 256.152,106.499 252.5,106C 251.695,104.887 251.028,103.721 250.5,102.5C 250.5,99.5 250.5,96.5 250.5,93.5C 255.818,92.3294 261.151,92.3294 266.5,93.5 Z"/></g>
<g><path style="opacity:0.549" fill="#1c3347" d="M 416.5,83.5 C 415.5,84.1667 414.5,84.8333 413.5,85.5C 411.87,87.0261 411.037,89.0261 411,91.5C 410.179,98.3464 410.346,105.013 411.5,111.5C 412.833,113.167 414.167,114.833 415.5,116.5C 415.167,116.5 414.833,116.5 414.5,116.5C 412.164,114.996 410.331,112.996 409,110.5C 408.333,103.833 408.333,97.1667 409,90.5C 409.481,85.8481 411.981,83.5148 416.5,83.5 Z"/></g>
<g><path style="opacity:0.125" fill="#0f1f2e" d="M 479.5,92.5 C 476.785,94.0719 473.785,95.0719 470.5,95.5C 473.084,93.5275 476.084,92.5275 479.5,92.5 Z"/></g>
<g><path style="opacity:0.98" fill="#3d6f9a" d="M 25.5,88.5 C 24.1516,89.6006 22.6516,90.6006 21,91.5C 20.3333,92.5 20.3333,93.5 21,94.5C 25.0265,97.5644 29.5265,99.5644 34.5,100.5C 36.3356,102.588 38.6689,103.921 41.5,104.5C 42.5137,105.674 43.847,106.34 45.5,106.5C 45.7822,107.778 46.4489,108.778 47.5,109.5C 39.331,106.106 31.331,102.44 23.5,98.5C 22.086,97.376 20.586,96.376 19,95.5C 18.51,94.2068 18.3433,92.8734 18.5,91.5C 20.4605,89.6878 22.7939,88.6878 25.5,88.5 Z"/></g>
<g><path style="opacity:1" fill="#367fbb" d="M 447.5,86.5 C 450.292,86.6225 452.292,87.9558 453.5,90.5C 453.392,97.5244 452.892,104.524 452,111.5C 451.617,112.056 451.117,112.389 450.5,112.5C 448.023,112.949 446.023,112.283 444.5,110.5C 444.977,109.522 445.643,108.689 446.5,108C 445.643,102.564 444.976,97.0642 444.5,91.5C 442.194,91.0074 439.861,90.6741 437.5,90.5C 437.167,90.5 436.833,90.5 436.5,90.5C 420.473,85.6944 414.973,91.361 420,107.5C 420.383,108.056 420.883,108.389 421.5,108.5C 422.167,108.5 422.5,108.833 422.5,109.5C 422.5,109.833 422.5,110.167 422.5,110.5C 420.544,112.148 418.211,112.815 415.5,112.5C 414.167,112.167 412.833,111.833 411.5,111.5C 411.152,103.452 412.152,95.6188 414.5,88C 425.451,86.6499 436.451,86.1499 447.5,86.5 Z M 423.5,92.5 C 429.718,91.9774 435.718,92.6441 441.5,94.5C 442.754,98.8484 442.754,103.182 441.5,107.5C 435.585,109.983 429.585,110.15 423.5,108C 421.599,102.728 421.599,97.5613 423.5,92.5 Z"/></g>
<g><path style="opacity:0.059" fill="#0b1420" d="M 423.5,92.5 C 427.97,91.5139 432.637,91.1805 437.5,91.5C 439.153,91.6596 440.486,92.3263 441.5,93.5C 441.5,93.8333 441.5,94.1667 441.5,94.5C 435.718,92.6441 429.718,91.9774 423.5,92.5 Z"/></g>
<g><path style="opacity:1" fill="#42759e" d="M 436.5,90.5 C 431.786,90.1734 427.12,90.5067 422.5,91.5C 420.987,93.5355 420.321,95.8688 420.5,98.5C 420.836,101.841 421.169,105.175 421.5,108.5C 420.883,108.389 420.383,108.056 420,107.5C 414.973,91.361 420.473,85.6944 436.5,90.5 Z"/></g>
<g><path style="opacity:0.046" fill="#040f1b" d="M 551.5,92.5 C 552.434,93.5676 552.768,94.901 552.5,96.5C 552.167,96.5 551.833,96.5 551.5,96.5C 545.833,96.5 540.167,96.5 534.5,96.5C 539.975,95.5111 545.642,95.1778 551.5,95.5C 551.5,94.5 551.5,93.5 551.5,92.5 Z"/></g>
<g><path style="opacity:1" fill="#476c89" d="M 216.5,93.5 C 220.167,93.5 223.833,93.5 227.5,93.5C 227.821,99.0262 227.488,104.36 226.5,109.5C 226.5,104.833 226.5,100.167 226.5,95.5C 223.5,95.5 220.5,95.5 217.5,95.5C 217.5,104.167 217.5,112.833 217.5,121.5C 216.507,112.682 216.173,103.682 216.5,94.5C 216.5,94.1667 216.5,93.8333 216.5,93.5 Z"/></g>
<g><path style="opacity:0.385" fill="#1a2a39" d="M 269.5,79.5 C 272.64,78.3592 275.973,78.1925 279.5,79C 280.573,80.3129 281.24,81.8129 281.5,83.5C 281.774,96.9543 281.107,110.288 279.5,123.5C 279.667,109.163 279.5,94.8295 279,80.5C 275.943,79.5495 272.777,79.2161 269.5,79.5 Z"/></g>
<g><path style="opacity:0.318" fill="#1c3347" d="M 436.5,90.5 C 436.833,90.5 437.167,90.5 437.5,90.5C 437.5,90.8333 437.5,91.1667 437.5,91.5C 432.637,91.1805 427.97,91.5139 423.5,92.5C 421.599,97.5613 421.599,102.728 423.5,108C 429.585,110.15 435.585,109.983 441.5,107.5C 440.653,108.966 439.32,109.8 437.5,110C 432.448,110.726 427.448,110.559 422.5,109.5C 422.5,108.833 422.167,108.5 421.5,108.5C 421.169,105.175 420.836,101.841 420.5,98.5C 420.321,95.8688 420.987,93.5355 422.5,91.5C 427.12,90.5067 431.786,90.1734 436.5,90.5 Z"/></g>
<g><path style="opacity:0.196" fill="#121e31" d="M 470.5,95.5 C 469.5,97.1667 468.167,98.5 466.5,99.5C 466.833,97.1667 468.167,95.8333 470.5,95.5 Z"/></g>
<g><path style="opacity:0.69" fill="#574420" d="M 87.5,91.5 C 88.8333,91.5 90.1667,91.5 91.5,91.5C 92.7279,93.0098 92.7279,94.5098 91.5,96C 84.8786,99.5704 78.5453,103.404 72.5,107.5C 71.8333,107.5 71.1667,107.5 70.5,107.5C 69.8333,107.5 69.1667,107.5 68.5,107.5C 76.0713,103.04 83.738,98.54 91.5,94C 89.9336,93.3918 88.6002,92.5585 87.5,91.5 Z"/></g>
<g><path style="opacity:1" fill="#367eba" d="M 299.5,93.5 C 298.833,93.5 298.5,93.8333 298.5,94.5C 297.512,99.6405 297.179,104.974 297.5,110.5C 295.5,110.5 293.5,110.5 291.5,110.5C 291.588,102.324 291.088,94.3238 290,86.5C 291.808,84.6041 293.975,84.1041 296.5,85C 298.93,87.3046 299.93,90.1379 299.5,93.5 Z"/></g>
<g><path style="opacity:0.459" fill="#2e4e69" d="M 312.5,93.5 C 312.833,93.5 313.167,93.5 313.5,93.5C 313.5,99.8333 313.5,106.167 313.5,112.5C 316.167,112.5 318.833,112.5 321.5,112.5C 318.713,113.477 315.713,113.81 312.5,113.5C 312.5,106.833 312.5,100.167 312.5,93.5 Z"/></g>
<g><path style="opacity:1" fill="#497597" d="M 551.5,83.5 C 554.131,85.1526 556.797,86.8193 559.5,88.5C 560.167,88.5 560.5,88.8333 560.5,89.5C 560.815,93.3714 560.482,97.0381 559.5,100.5C 554.156,100.666 548.823,100.499 543.5,100C 539.204,99.9244 535.204,99.0911 531.5,97.5C 538.354,97.824 545.021,97.4907 551.5,96.5C 551.833,96.5 552.167,96.5 552.5,96.5C 553.774,97.1894 553.774,98.0228 552.5,99C 554.473,99.4955 556.473,99.6621 558.5,99.5C 558.82,96.1016 558.487,92.7683 557.5,89.5C 556.3,88.4688 554.966,87.6355 553.5,87C 544.969,84.3091 536.302,83.8091 527.5,85.5C 529.277,84.3995 531.277,83.5662 533.5,83C 539.516,82.5012 545.516,82.6679 551.5,83.5 Z"/></g>
<g><path style="opacity:1" fill="#3680bc" d="M 18.5,91.5 C 18.3433,92.8734 18.51,94.2068 19,95.5C 20.586,96.376 22.086,97.376 23.5,98.5C 31.331,102.44 39.331,106.106 47.5,109.5C 48.5,109.5 49.5,109.5 50.5,109.5C 50.5123,112.142 49.179,113.475 46.5,113.5C 43.128,114.449 39.7947,114.449 36.5,113.5C 35.895,114.587 36.2283,115.754 37.5,117C 36.6667,117.167 35.8333,117.333 35,117.5C 30.6658,115.889 26.8325,113.389 23.5,110C 20.854,109.503 18.1873,109.336 15.5,109.5C 13.9731,109.573 12.9731,108.906 12.5,107.5C 9.32251,105.071 6.32251,102.404 3.5,99.5C 5.4835,99.6168 7.15017,98.9501 8.5,97.5C 9.83036,99.3469 9.49703,100.847 7.5,102C 8.5,102.5 9.5,103 10.5,103.5C 11.6933,101.473 13.36,99.9733 15.5,99C 13.7888,97.8668 13.2888,96.3668 14,94.5C 15.7505,93.7775 17.2505,92.7775 18.5,91.5 Z"/></g>
<g><path style="opacity:0.129" fill="#111d27" d="M 216.5,93.5 C 216.5,93.8333 216.5,94.1667 216.5,94.5C 215.833,102.5 215.167,110.5 214.5,118.5C 213.865,109.766 214.532,101.433 216.5,93.5 Z"/></g>
<g><path style="opacity:1" fill="#4079a7" d="M 226.5,109.5 C 225.863,112.456 225.363,115.456 225,118.5C 224.578,120.426 223.411,121.426 221.5,121.5C 220.167,121.5 218.833,121.5 217.5,121.5C 217.5,112.833 217.5,104.167 217.5,95.5C 220.5,95.5 223.5,95.5 226.5,95.5C 226.5,100.167 226.5,104.833 226.5,109.5 Z"/></g>
<g><path style="opacity:1" fill="#357fba" d="M 218.5,96.5 C 220.833,96.5 223.167,96.5 225.5,96.5C 225.432,104.641 224.432,112.641 222.5,120.5C 221.167,120.5 219.833,120.5 218.5,120.5C 218.5,112.5 218.5,104.5 218.5,96.5 Z"/></g>
<g><path style="opacity:0.161" fill="#102231" d="M 34.5,100.5 C 37.3311,101.079 39.6644,102.412 41.5,104.5C 38.6689,103.921 36.3356,102.588 34.5,100.5 Z"/></g>
<g><path style="opacity:1" fill="#d1ad5a" d="M 91.5,91.5 C 94.9656,92.109 95.9656,93.9423 94.5,97C 87.6748,100.356 81.0081,103.856 74.5,107.5C 73.8333,107.5 73.1667,107.5 72.5,107.5C 78.5453,103.404 84.8786,99.5704 91.5,96C 92.7279,94.5098 92.7279,93.0098 91.5,91.5 Z"/></g>
<g><path style="opacity:0.208" fill="#182a38" d="M 216.5,122.5 C 218.415,122.784 220.081,122.451 221.5,121.5C 223.411,121.426 224.578,120.426 225,118.5C 225.363,115.456 225.863,112.456 226.5,109.5C 227.488,104.36 227.821,99.0262 227.5,93.5C 223.833,93.5 220.167,93.5 216.5,93.5C 219.952,92.1496 223.619,91.6496 227.5,92C 228.944,93.126 229.61,94.626 229.5,96.5C 228.937,104.922 227.771,113.256 226,121.5C 222.85,123.451 219.684,123.784 216.5,122.5 Z"/></g>
<g><path style="opacity:0.816" fill="#355e7f" d="M 238.5,95.5 C 238.309,100.899 238.809,106.233 240,111.5C 241.948,112.109 243.782,112.776 245.5,113.5C 244.167,113.5 242.833,113.5 241.5,113.5C 239.973,113.573 238.973,112.906 238.5,111.5C 237.243,106.036 237.243,100.703 238.5,95.5 Z"/></g>
<g><path style="opacity:0.294" fill="#17283a" d="M 298.5,83.5 C 295.167,83.5 291.833,83.5 288.5,83.5C 288.5,87.5 288.5,91.5 288.5,95.5C 289.194,100.805 289.528,106.138 289.5,111.5C 287.794,102.365 286.96,93.0316 287,83.5C 290.843,80.9786 294.676,80.9786 298.5,83.5 Z"/></g>
<g><path style="opacity:0.071" fill="#112133" d="M 310.5,93.5 C 307.349,92.6843 304.183,93.0176 301,94.5C 300.827,100.348 300.327,106.015 299.5,111.5C 299.5,105.5 299.5,99.5 299.5,93.5C 301.689,92.4384 304.022,91.7717 306.5,91.5C 308.355,91.3402 309.688,92.0069 310.5,93.5 Z"/></g>
<g><path style="opacity:0.063" fill="#081d2c" d="M 310.5,93.5 C 311.167,93.5 311.833,93.5 312.5,93.5C 312.5,100.167 312.5,106.833 312.5,113.5C 311.799,106.933 311.132,100.267 310.5,93.5 Z"/></g>
<g><path style="opacity:0.224" fill="#142d44" d="M 441.5,93.5 C 442.117,93.6107 442.617,93.944 443,94.5C 443.499,98.8206 443.666,103.154 443.5,107.5C 442.833,107.5 442.167,107.5 441.5,107.5C 442.754,103.182 442.754,98.8484 441.5,94.5C 441.5,94.1667 441.5,93.8333 441.5,93.5 Z"/></g>
<g><path style="opacity:0.263" fill="#142534" d="M 560.5,89.5 C 561.283,92.5091 561.95,95.6758 562.5,99C 562.241,100.261 561.574,101.261 560.5,102C 550.162,102.484 539.828,102.984 529.5,103.5C 529.22,106.388 530.553,107.888 533.5,108C 540.513,108.254 547.513,108.254 554.5,108C 556.028,109.648 556.695,111.648 556.5,114C 556.492,115.707 556.158,117.207 555.5,118.5C 555.777,115.552 555.444,112.719 554.5,110C 546.5,109.667 538.5,109.333 530.5,109C 528.722,106.865 528.055,104.365 528.5,101.5C 539.014,101.828 549.347,101.494 559.5,100.5C 560.482,97.0381 560.815,93.3714 560.5,89.5 Z"/></g>
<g><path style="opacity:1" fill="#3e7baa" d="M 149.5,86.5 C 149.363,97.2027 148.696,107.869 147.5,118.5C 150.911,119.067 152.911,117.734 153.5,114.5C 153.893,119.663 151.727,121.33 147,119.5C 146.765,108.286 147.599,97.2861 149.5,86.5 Z"/></g>
<g><path style="opacity:0.894" fill="#366389" d="M 530.5,97.5 C 530.833,97.5 531.167,97.5 531.5,97.5C 535.204,99.0911 539.204,99.9244 543.5,100C 548.823,100.499 554.156,100.666 559.5,100.5C 549.347,101.494 539.014,101.828 528.5,101.5C 528.055,104.365 528.722,106.865 530.5,109C 538.5,109.333 546.5,109.667 554.5,110C 555.444,112.719 555.777,115.552 555.5,118.5C 544.931,119.818 534.265,119.818 523.5,118.5C 523.5,118.167 523.5,117.833 523.5,117.5C 533.167,117.5 542.833,117.5 552.5,117.5C 552.5,115.5 552.5,113.5 552.5,111.5C 544.833,112.648 537.167,112.648 529.5,111.5C 526.829,108.315 526.162,104.815 527.5,101C 528.448,100.517 529.448,100.351 530.5,100.5C 530.5,99.5 530.5,98.5 530.5,97.5 Z"/></g>
<g><path style="opacity:1" fill="#3382c4" d="M 317.5,86.5 C 319.129,87.6253 320.629,88.9586 322,90.5C 322.831,97.1915 322.664,103.858 321.5,110.5C 319.591,111.348 317.591,111.682 315.5,111.5C 316.301,103.041 316.967,94.7078 317.5,86.5 Z"/></g>
<g><path style="opacity:0.149" fill="#132434" d="M -0.5,96.5 C 1.23872,99.6351 3.23872,102.635 5.5,105.5C 2.88507,104.55 0.88507,102.883 -0.5,100.5C -0.5,99.1667 -0.5,97.8333 -0.5,96.5 Z"/></g>
<g><path style="opacity:0.071" fill="#081d2a" d="M 41.5,104.5 C 43.3797,104.229 44.713,104.896 45.5,106.5C 43.847,106.34 42.5137,105.674 41.5,104.5 Z"/></g>
<g><path style="opacity:0.384" fill="#172835" d="M 242.5,84.5 C 241.075,85.922 240.075,87.5887 239.5,89.5C 238.659,91.3792 238.325,93.3792 238.5,95.5C 237.243,100.703 237.243,106.036 238.5,111.5C 236.348,109.393 235.348,106.726 235.5,103.5C 235.881,97.6621 237.048,91.9954 239,86.5C 239.816,85.1772 240.983,84.5106 242.5,84.5 Z"/></g>
<g><path style="opacity:0.527" fill="#2a4762" d="M 299.5,93.5 C 299.5,99.5 299.5,105.5 299.5,111.5C 299.389,112.117 299.056,112.617 298.5,113C 297,113.167 295.5,113.333 294,113.5C 292.014,113.431 290.514,112.765 289.5,111.5C 289.528,106.138 289.194,100.805 288.5,95.5C 290.26,100.553 290.927,105.886 290.5,111.5C 293.167,111.5 295.833,111.5 298.5,111.5C 298.5,105.833 298.5,100.167 298.5,94.5C 298.5,93.8333 298.833,93.5 299.5,93.5 Z"/></g>
<g><path style="opacity:1" fill="#357db8" d="M 202.5,110.5 C 201.521,113.625 201.187,116.958 201.5,120.5C 199.856,120.714 198.356,120.38 197,119.5C 196.667,110.5 196.333,101.5 196,92.5C 195.768,91.2625 195.268,90.2625 194.5,89.5C 194.335,86.1501 194.502,82.8168 195,79.5C 197.719,78.5562 200.552,78.2229 203.5,78.5C 203.787,89.2181 203.454,99.8848 202.5,110.5 Z"/></g>
<g><path style="opacity:1" fill="#367fbb" d="M 507.5,79.5 C 507.666,88.8393 507.5,98.1726 507,107.5C 506.855,111.991 506.021,116.324 504.5,120.5C 494.692,122.441 484.692,123.107 474.5,122.5C 473.167,122.5 471.833,122.5 470.5,122.5C 468.396,120.628 467.063,118.295 466.5,115.5C 466.21,111.064 466.71,106.73 468,102.5C 469.214,100.951 470.714,99.7845 472.5,99C 471.833,98.6667 471.167,98.3333 470.5,98C 479.562,94.3412 488.895,93.5079 498.5,95.5C 498.334,90.1563 498.501,84.8229 499,79.5C 501.832,78.2138 504.665,78.2138 507.5,79.5 Z M 499.5,103.5 C 499.5,104.5 499.5,105.5 499.5,106.5C 499.739,108.467 499.406,110.301 498.5,112C 492.312,113.607 486.145,113.774 480,112.5C 479.503,110.19 479.337,107.857 479.5,105.5C 479.918,104.778 480.584,104.278 481.5,104C 487.491,103.501 493.491,103.334 499.5,103.5 Z"/></g>
<g><path style="opacity:0.46" fill="#213e5c" d="M 499.5,103.5 C 500.94,104.946 501.607,106.779 501.5,109C 501.486,110.385 501.152,111.551 500.5,112.5C 500.795,110.265 500.461,108.265 499.5,106.5C 499.5,105.5 499.5,104.5 499.5,103.5 Z"/></g>
<g><path style="opacity:0.11" fill="#193044" d="M 499.5,102.5 C 499.5,102.833 499.5,103.167 499.5,103.5C 493.491,103.334 487.491,103.501 481.5,104C 480.584,104.278 479.918,104.778 479.5,105.5C 478.527,107.948 478.194,110.615 478.5,113.5C 477.842,112.207 477.508,110.707 477.5,109C 477.305,106.648 477.972,104.648 479.5,103C 486.158,102.5 492.825,102.334 499.5,102.5 Z"/></g>
<g><path style="opacity:1" fill="#386b92" d="M 179.5,95.5 C 180.278,102.077 181.278,108.744 182.5,115.5C 181.849,114.909 181.182,114.243 180.5,113.5C 179.504,107.537 179.171,101.537 179.5,95.5 Z"/></g>
<g><path style="opacity:0.429" fill="#172837" d="M 324.5,86.5 C 326.109,89.1489 326.943,92.1489 327,95.5C 327.667,101.167 327.667,106.833 327,112.5C 324.413,114.014 321.58,114.68 318.5,114.5C 316.304,114.495 314.304,114.162 312.5,113.5C 315.713,113.81 318.713,113.477 321.5,112.5C 322.833,112.5 324.167,112.5 325.5,112.5C 325.711,103.8 325.377,95.1333 324.5,86.5 Z"/></g>
<g><path style="opacity:0.455" fill="#22394c" d="M 45.5,106.5 C 47.674,106.75 49.3406,107.75 50.5,109.5C 49.5,109.5 48.5,109.5 47.5,109.5C 46.4489,108.778 45.7822,107.778 45.5,106.5 Z"/></g>
<g><path style="opacity:0.231" fill="#413114" d="M 119.5,103.5 C 117.225,108.983 113.225,112.65 107.5,114.5C 107.833,113.833 108.167,113.167 108.5,112.5C 111.997,111.089 114.664,108.756 116.5,105.5C 117.5,104.833 118.5,104.167 119.5,103.5 Z"/></g>
<g><path style="opacity:1" fill="#367fbd" d="M 179.5,95.5 C 179.171,101.537 179.504,107.537 180.5,113.5C 181.182,114.243 181.849,114.909 182.5,115.5C 182.5,115.833 182.5,116.167 182.5,116.5C 182.662,118.527 182.495,120.527 182,122.5C 180.612,123.554 179.112,123.72 177.5,123C 176.134,120.003 175.467,116.836 175.5,113.5C 174.5,113.5 173.5,113.5 172.5,113.5C 172.167,113.5 171.833,113.5 171.5,113.5C 165.926,111.547 159.926,110.88 153.5,111.5C 153.5,112.5 153.5,113.5 153.5,114.5C 152.911,117.734 150.911,119.067 147.5,118.5C 148.696,107.869 149.363,97.2027 149.5,86.5C 149.298,84.0504 149.631,81.717 150.5,79.5C 150.833,79.5 151.167,79.5 151.5,79.5C 159.155,78.6895 166.822,78.5229 174.5,79C 176.119,84.7252 177.785,90.2252 179.5,95.5 Z M 162.5,94.5 C 164.39,94.2965 165.89,94.9632 167,96.5C 167.497,98.8098 167.663,101.143 167.5,103.5C 164.5,103.5 161.5,103.5 158.5,103.5C 158.318,99.6715 159.652,96.6715 162.5,94.5 Z"/></g>
<g><path style="opacity:0.922" fill="#3d709a" d="M 159.5,94.5 C 158.833,96.1667 158.167,97.8333 157.5,99.5C 156.539,101.265 156.205,103.265 156.5,105.5C 160.702,105.817 164.702,105.483 168.5,104.5C 168.665,101.482 168.498,98.4816 168,95.5C 165.865,93.7215 163.365,93.0548 160.5,93.5C 161.312,92.0069 162.645,91.3402 164.5,91.5C 167.301,91.4641 169.135,92.7974 170,95.5C 170.673,98.5214 171.007,101.521 171,104.5C 170.308,105.025 169.808,105.692 169.5,106.5C 164.544,107.494 159.544,107.827 154.5,107.5C 154.335,104.15 154.502,100.817 155,97.5C 155.918,95.6243 157.418,94.6243 159.5,94.5 Z M 162.5,94.5 C 159.652,96.6715 158.318,99.6715 158.5,103.5C 161.5,103.5 164.5,103.5 167.5,103.5C 167.663,101.143 167.497,98.8098 167,96.5C 165.89,94.9632 164.39,94.2965 162.5,94.5 Z"/></g>
<g><path style="opacity:0.337" fill="#26435c" d="M 157.5,99.5 C 157.5,101.167 157.5,102.833 157.5,104.5C 161.167,104.5 164.833,104.5 168.5,104.5C 164.702,105.483 160.702,105.817 156.5,105.5C 156.205,103.265 156.539,101.265 157.5,99.5 Z"/></g>
<g><path style="opacity:0.227" fill="#0f2232" d="M 160.5,93.5 C 163.365,93.0548 165.865,93.7215 168,95.5C 168.498,98.4816 168.665,101.482 168.5,104.5C 164.833,104.5 161.167,104.5 157.5,104.5C 157.5,102.833 157.5,101.167 157.5,99.5C 158.167,97.8333 158.833,96.1667 159.5,94.5C 159.5,93.8333 159.833,93.5 160.5,93.5 Z M 162.5,94.5 C 159.652,96.6715 158.318,99.6715 158.5,103.5C 161.5,103.5 164.5,103.5 167.5,103.5C 167.663,101.143 167.497,98.8098 167,96.5C 165.89,94.9632 164.39,94.2965 162.5,94.5 Z"/></g>
<g><path style="opacity:1" fill="#3f739d" d="M 499.5,102.5 C 492.825,102.334 486.158,102.5 479.5,103C 477.972,104.648 477.305,106.648 477.5,109C 477.508,110.707 477.842,112.207 478.5,113.5C 478.5,114.167 478.5,114.833 478.5,115.5C 476.606,113.177 475.273,110.51 474.5,107.5C 474.406,105.088 475.406,103.255 477.5,102C 485.012,101.178 492.345,101.345 499.5,102.5 Z"/></g>
<g><path style="opacity:0.114" fill="#291e0c" d="M 68.5,107.5 C 67.713,109.104 66.3797,109.771 64.5,109.5C 65.5137,108.326 66.847,107.66 68.5,107.5 Z"/></g>
<g><path style="opacity:1" fill="#3e739e" d="M 194.5,89.5 C 195.268,90.2625 195.768,91.2625 196,92.5C 196.333,101.5 196.667,110.5 197,119.5C 198.356,120.38 199.856,120.714 201.5,120.5C 201.187,116.958 201.521,113.625 202.5,110.5C 202.5,114.5 202.5,118.5 202.5,122.5C 199.833,122.5 197.167,122.5 194.5,122.5C 194.5,111.5 194.5,100.5 194.5,89.5 Z"/></g>
<g><path style="opacity:1" fill="#3f749e" d="M 269.5,107.5 C 268.711,107.783 268.044,108.283 267.5,109C 261.833,109.667 256.167,109.667 250.5,109C 249.953,108.075 249.287,107.242 248.5,106.5C 247.506,101.544 247.173,96.544 247.5,91.5C 248.5,91.5 249.5,91.5 250.5,91.5C 250.611,90.8826 250.944,90.3826 251.5,90C 257.993,88.6198 263.993,89.6198 269.5,93C 271.045,94.8219 271.712,96.9886 271.5,99.5C 271.617,102.44 270.95,105.107 269.5,107.5 Z M 266.5,93.5 C 266.833,93.5 267.167,93.5 267.5,93.5C 268.329,96.4686 268.495,99.4686 268,102.5C 267.093,104.609 265.593,105.942 263.5,106.5C 259.818,106.665 256.152,106.499 252.5,106C 251.695,104.887 251.028,103.721 250.5,102.5C 250.5,99.5 250.5,96.5 250.5,93.5C 255.818,92.3294 261.151,92.3294 266.5,93.5 Z"/></g>
<g><path style="opacity:0.235" fill="#10283c" d="M 267.5,93.5 C 268.222,93.9175 268.722,94.5842 269,95.5C 269.667,98.5 269.667,101.5 269,104.5C 267.556,106.155 265.722,106.822 263.5,106.5C 265.593,105.942 267.093,104.609 268,102.5C 268.495,99.4686 268.329,96.4686 267.5,93.5 Z"/></g>
<g><path style="opacity:0.682" fill="#28455f" d="M 249.5,93.5 C 249.19,96.7131 249.523,99.7131 250.5,102.5C 251.028,103.721 251.695,104.887 252.5,106C 256.152,106.499 259.818,106.665 263.5,106.5C 263.082,107.222 262.416,107.722 261.5,108C 258.167,108.667 254.833,108.667 251.5,108C 248.491,103.373 247.824,98.5399 249.5,93.5 Z"/></g>
<g><path style="opacity:0.2" fill="#162739" d="M 250.5,91.5 C 254.846,91.3343 259.179,91.501 263.5,92C 264.737,92.2321 265.737,92.7321 266.5,93.5C 261.151,92.3294 255.818,92.3294 250.5,93.5C 250.5,96.5 250.5,99.5 250.5,102.5C 249.523,99.7131 249.19,96.7131 249.5,93.5C 249.833,92.8333 250.167,92.1667 250.5,91.5 Z"/></g>
<g><path style="opacity:0.18" fill="#132331" d="M 371.5,95.5 C 371.334,100.511 371.501,105.511 372,110.5C 374.826,112.34 377.993,113.006 381.5,112.5C 378.36,113.641 375.027,113.808 371.5,113C 370.62,111.644 370.286,110.144 370.5,108.5C 370.182,103.968 370.515,99.6344 371.5,95.5 Z"/></g>
<g><path style="opacity:0.533" fill="#1f374a" d="M 5.5,105.5 C 8.1085,105.4 10.4418,106.067 12.5,107.5C 12.9731,108.906 13.9731,109.573 15.5,109.5C 17.297,110.393 18.6304,111.726 19.5,113.5C 14.1734,111.841 9.50671,109.174 5.5,105.5 Z"/></g>
<g><path style="opacity:0.439" fill="#182c3d" d="M 178.5,79.5 C 181.074,94.3484 183.24,109.348 185,124.5C 184.329,125.252 183.496,125.586 182.5,125.5C 183.775,122.396 183.775,119.396 182.5,116.5C 182.5,116.167 182.5,115.833 182.5,115.5C 181.278,108.744 180.278,102.077 179.5,95.5C 178.806,90.1951 178.472,84.8617 178.5,79.5 Z"/></g>
<g><path style="opacity:1" fill="#347ebc" d="M 370.5,80.5 C 371.167,80.5 371.833,80.5 372.5,80.5C 370.928,82.8669 371.261,84.8669 373.5,86.5C 376.878,86.7276 380.378,86.3943 384,85.5C 385.28,85.6135 386.113,86.2801 386.5,87.5C 388.396,88.4656 390.396,88.7989 392.5,88.5C 392.229,86.6203 392.896,85.287 394.5,84.5C 394.5,86.1667 394.5,87.8333 394.5,89.5C 389.935,89.8478 385.601,89.1811 381.5,87.5C 379.083,88.4044 376.583,89.071 374,89.5C 372.104,89.1297 370.271,88.963 368.5,89C 368.496,97.0603 368.663,105.227 369,113.5C 378.75,114.486 388.584,114.819 398.5,114.5C 398.5,115.833 398.5,117.167 398.5,118.5C 388.45,117.932 378.617,117.932 369,118.5C 367.739,118.241 366.739,117.574 366,116.5C 365.536,113.348 363.703,111.682 360.5,111.5C 359.167,105.5 359.167,99.5 360.5,93.5C 363.085,89.6208 365.585,85.6208 368,81.5C 368.671,80.7476 369.504,80.4142 370.5,80.5 Z"/></g>
<g><path style="opacity:0.271" fill="#2f250e" d="M 64.5,109.5 C 64.1667,110.167 63.8333,110.833 63.5,111.5C 62.8333,111.5 62.1667,111.5 61.5,111.5C 61.9731,110.094 62.9731,109.427 64.5,109.5 Z"/></g>
<g><path style="opacity:1" fill="#af995e" d="M 68.5,107.5 C 69.1667,107.5 69.8333,107.5 70.5,107.5C 69.145,110.518 66.8116,111.851 63.5,111.5C 63.8333,110.833 64.1667,110.167 64.5,109.5C 66.3797,109.771 67.713,109.104 68.5,107.5 Z"/></g>
<g><path style="opacity:0.667" fill="#456787" d="M 441.5,107.5 C 442.167,107.5 442.833,107.5 443.5,107.5C 442.657,109.173 441.324,110.34 439.5,111C 433.651,111.818 427.985,111.652 422.5,110.5C 422.5,110.167 422.5,109.833 422.5,109.5C 427.448,110.559 432.448,110.726 437.5,110C 439.32,109.8 440.653,108.966 441.5,107.5 Z"/></g>
<g><path style="opacity:0.376" fill="#192a34" d="M 394.5,110.5 C 394.5,110.833 394.5,111.167 394.5,111.5C 390.548,112.272 386.548,112.605 382.5,112.5C 386.267,111.205 390.267,110.539 394.5,110.5 Z"/></g>
<g><path style="opacity:0.733" fill="#796433" d="M 61.5,111.5 C 62.1667,111.5 62.8333,111.5 63.5,111.5C 62.7095,112.401 61.7095,113.068 60.5,113.5C 60.1667,113.5 59.8333,113.5 59.5,113.5C 59.5,113.167 59.5,112.833 59.5,112.5C 59.8417,111.662 60.5084,111.328 61.5,111.5 Z"/></g>
<g><path style="opacity:1" fill="#3c79a9" d="M 15.5,109.5 C 18.1873,109.336 20.854,109.503 23.5,110C 26.8325,113.389 30.6658,115.889 35,117.5C 35.8333,117.333 36.6667,117.167 37.5,117C 36.2283,115.754 35.895,114.587 36.5,113.5C 39.7947,114.449 43.128,114.449 46.5,113.5C 43.2203,116.391 39.3869,118.391 35,119.5C 29.8238,117.321 24.6571,115.321 19.5,113.5C 18.6304,111.726 17.297,110.393 15.5,109.5 Z"/></g>
<g><path style="opacity:1" fill="#e3b856" d="M 70.5,107.5 C 71.1667,107.5 71.8333,107.5 72.5,107.5C 73.1667,107.5 73.8333,107.5 74.5,107.5C 73.5244,108.815 72.5244,110.148 71.5,111.5C 67.8622,112.327 64.5289,113.661 61.5,115.5C 60.8333,115.5 60.1667,115.5 59.5,115.5C 59.8333,114.833 60.1667,114.167 60.5,113.5C 61.7095,113.068 62.7095,112.401 63.5,111.5C 66.8116,111.851 69.145,110.518 70.5,107.5 Z"/></g>
<g><path style="opacity:0.132" fill="#0e1e2d" d="M 171.5,113.5 C 171.833,113.5 172.167,113.5 172.5,113.5C 172.5,114.833 172.5,116.167 172.5,117.5C 171.733,116.828 171.066,115.995 170.5,115C 165.28,114.017 160.28,114.517 155.5,116.5C 155.5,115.5 155.5,114.5 155.5,113.5C 160.833,113.5 166.167,113.5 171.5,113.5 Z"/></g>
<g><path style="opacity:1" fill="#3571a5" d="M 437.5,91.5 C 437.5,91.1667 437.5,90.8333 437.5,90.5C 439.861,90.6741 442.194,91.0074 444.5,91.5C 444.976,97.0642 445.643,102.564 446.5,108C 445.643,108.689 444.977,109.522 444.5,110.5C 446.023,112.283 448.023,112.949 450.5,112.5C 445.04,113.829 439.207,114.496 433,114.5C 426.793,114.496 420.96,113.829 415.5,112.5C 418.211,112.815 420.544,112.148 422.5,110.5C 427.985,111.652 433.651,111.818 439.5,111C 441.324,110.34 442.657,109.173 443.5,107.5C 443.666,103.154 443.499,98.8206 443,94.5C 442.617,93.944 442.117,93.6107 441.5,93.5C 440.486,92.3263 439.153,91.6596 437.5,91.5 Z"/></g>
<g><path style="opacity:0.049" fill="#091720" d="M 479.5,105.5 C 479.337,107.857 479.503,110.19 480,112.5C 486.145,113.774 492.312,113.607 498.5,112C 499.406,110.301 499.739,108.467 499.5,106.5C 500.461,108.265 500.795,110.265 500.5,112.5C 497.002,113.917 493.335,114.583 489.5,114.5C 485.731,114.756 482.064,114.423 478.5,113.5C 478.194,110.615 478.527,107.948 479.5,105.5 Z"/></g>
<g><path style="opacity:1" fill="#377eba" d="M 530.5,97.5 C 530.5,98.5 530.5,99.5 530.5,100.5C 529.448,100.351 528.448,100.517 527.5,101C 526.162,104.815 526.829,108.315 529.5,111.5C 537.167,112.648 544.833,112.648 552.5,111.5C 552.5,113.5 552.5,115.5 552.5,117.5C 542.833,117.5 533.167,117.5 523.5,117.5C 520.956,116.292 519.622,114.292 519.5,111.5C 519.243,105.102 519.743,98.7688 521,92.5C 523.158,89.7042 525.991,88.3709 529.5,88.5C 529.19,91.7131 529.523,94.7131 530.5,97.5 Z"/></g>
<g><path style="opacity:0.424" fill="#152333" d="M 241.5,113.5 C 242.833,113.5 244.167,113.5 245.5,113.5C 253.316,114.492 261.316,114.826 269.5,114.5C 269.756,116.792 269.423,118.959 268.5,121C 265.854,121.497 263.187,121.664 260.5,121.5C 256.5,121.5 252.5,121.5 248.5,121.5C 254.319,120.672 260.319,120.172 266.5,120C 267.38,118.644 267.714,117.144 267.5,115.5C 259.471,116.998 251.471,116.831 243.5,115C 242.584,114.722 241.918,114.222 241.5,113.5 Z"/></g>
<g><path style="opacity:0.22" fill="#112637" d="M 363.5,82.5 C 362.2,86.0961 361.2,89.7627 360.5,93.5C 359.167,99.5 359.167,105.5 360.5,111.5C 362.153,114.807 363.82,118.14 365.5,121.5C 363.376,120.969 361.876,119.635 361,117.5C 357.2,109.093 356.533,100.427 359,91.5C 359.663,87.9647 361.163,84.9647 363.5,82.5 Z"/></g>
<g><path style="opacity:1" fill="#3c6e96" d="M 453.5,90.5 C 454.167,91.5 454.833,92.5 455.5,93.5C 457.585,101.205 456.252,108.372 451.5,115C 439.528,116.166 427.528,116.666 415.5,116.5C 414.167,114.833 412.833,113.167 411.5,111.5C 412.833,111.833 414.167,112.167 415.5,112.5C 420.96,113.829 426.793,114.496 433,114.5C 439.207,114.496 445.04,113.829 450.5,112.5C 451.117,112.389 451.617,112.056 452,111.5C 452.892,104.524 453.392,97.5244 453.5,90.5 Z"/></g>
<g><path style="opacity:0.433" fill="#2e4a62" d="M 478.5,113.5 C 482.064,114.423 485.731,114.756 489.5,114.5C 486.375,115.479 483.042,115.813 479.5,115.5C 479.167,115.5 478.833,115.5 478.5,115.5C 478.5,114.833 478.5,114.167 478.5,113.5 Z"/></g>
<g><path style="opacity:0.537" fill="#3d2f17" d="M 59.5,112.5 C 59.5,112.833 59.5,113.167 59.5,113.5C 54.9659,116.225 50.2993,118.559 45.5,120.5C 49.5067,116.826 54.1734,114.159 59.5,112.5 Z"/></g>
<g><path style="opacity:0.443" fill="#5f4c25" d="M 108.5,112.5 C 108.167,113.167 107.833,113.833 107.5,114.5C 106.035,115.737 104.368,116.737 102.5,117.5C 101.5,117.5 100.5,117.5 99.5,117.5C 102.331,115.583 105.331,113.917 108.5,112.5 Z"/></g>
<g><path style="opacity:0.365" fill="#2b4259" d="M 216.5,94.5 C 216.173,103.682 216.507,112.682 217.5,121.5C 218.833,121.5 220.167,121.5 221.5,121.5C 220.081,122.451 218.415,122.784 216.5,122.5C 215.326,121.486 214.66,120.153 214.5,118.5C 215.167,110.5 215.833,102.5 216.5,94.5 Z"/></g>
<g><path style="opacity:0.6" fill="#2d485e" d="M 394.5,111.5 C 394.5,111.167 394.5,110.833 394.5,110.5C 394.833,110.5 395.167,110.5 395.5,110.5C 397.5,110.5 399.5,110.5 401.5,110.5C 401.5,113.5 401.5,116.5 401.5,119.5C 401.158,120.338 400.492,120.672 399.5,120.5C 399.5,120.167 399.5,119.833 399.5,119.5C 400.473,117.052 400.806,114.385 400.5,111.5C 398.5,111.5 396.5,111.5 394.5,111.5 Z"/></g>
<g><path style="opacity:0.918" fill="#42729c" d="M 499.5,103.5 C 499.5,103.167 499.5,102.833 499.5,102.5C 500.5,102.5 501.5,102.5 502.5,102.5C 502.793,106.437 502.46,110.27 501.5,114C 494.184,116.582 486.851,117.082 479.5,115.5C 483.042,115.813 486.375,115.479 489.5,114.5C 493.335,114.583 497.002,113.917 500.5,112.5C 501.152,111.551 501.486,110.385 501.5,109C 501.607,106.779 500.94,104.946 499.5,103.5 Z"/></g>
<g><path style="opacity:0.231" fill="#183043" d="M 50.5,109.5 C 53.106,110.85 53.106,112.35 50.5,114C 45.2821,116.776 39.9488,119.276 34.5,121.5C 28.9985,119.585 23.9985,116.919 19.5,113.5C 24.6571,115.321 29.8238,117.321 35,119.5C 39.3869,118.391 43.2203,116.391 46.5,113.5C 49.179,113.475 50.5123,112.142 50.5,109.5 Z"/></g>
<g><path style="opacity:1" fill="#c3a558" d="M 59.5,113.5 C 59.8333,113.5 60.1667,113.5 60.5,113.5C 60.1667,114.167 59.8333,114.833 59.5,115.5C 57.7496,116.87 55.7496,117.87 53.5,118.5C 51.0786,120.238 48.4119,121.571 45.5,122.5C 45.5,121.833 45.5,121.167 45.5,120.5C 50.2993,118.559 54.9659,116.225 59.5,113.5 Z"/></g>
<g><path style="opacity:0.114" fill="#101d28" d="M 395.5,110.5 C 397.607,109.532 399.941,109.198 402.5,109.5C 402.813,113.042 402.479,116.375 401.5,119.5C 401.5,116.5 401.5,113.5 401.5,110.5C 399.5,110.5 397.5,110.5 395.5,110.5 Z"/></g>
<g><path style="opacity:0.137" fill="#0b1c2c" d="M 455.5,87.5 C 456.29,88.6085 456.79,89.9419 457,91.5C 457.667,96.5 457.667,101.5 457,106.5C 456.513,109.798 455.347,112.798 453.5,115.5C 445.936,117.019 438.27,117.686 430.5,117.5C 424.989,117.499 419.656,117.166 414.5,116.5C 414.833,116.5 415.167,116.5 415.5,116.5C 427.528,116.666 439.528,116.166 451.5,115C 456.252,108.372 457.585,101.205 455.5,93.5C 455.5,91.5 455.5,89.5 455.5,87.5 Z"/></g>
<g><path style="opacity:0.38" fill="#162d41" d="M 466.5,99.5 C 465.846,102.494 465.179,105.494 464.5,108.5C 464.44,111.155 465.107,113.489 466.5,115.5C 467.063,118.295 468.396,120.628 470.5,122.5C 467.178,121.342 465.012,119.008 464,115.5C 463.333,111.5 463.333,107.5 464,103.5C 464.2,101.68 465.034,100.347 466.5,99.5 Z"/></g>
<g><path style="opacity:0.11" fill="#181f37" d="M 155.5,116.5 C 155.946,119.01 155.28,121.01 153.5,122.5C 153.595,120.214 154.262,118.214 155.5,116.5 Z"/></g>
<g><path style="opacity:0.149" fill="#142336" d="M 172.5,117.5 C 174.163,119.438 174.829,121.772 174.5,124.5C 172.837,122.562 172.171,120.228 172.5,117.5 Z"/></g>
<g><path style="opacity:0.235" fill="#3d2e12" d="M 99.5,117.5 C 100.5,117.5 101.5,117.5 102.5,117.5C 91.9465,123.944 80.9465,129.611 69.5,134.5C 70.8333,133.167 72.1667,131.833 73.5,130.5C 75.8185,130.008 77.8185,129.008 79.5,127.5C 79.8333,127.5 80.1667,127.5 80.5,127.5C 86.8287,124.174 93.1621,120.841 99.5,117.5 Z"/></g>
<g><path style="opacity:0.902" fill="#3e698e" d="M 172.5,113.5 C 173.5,113.5 174.5,113.5 175.5,113.5C 175.467,116.836 176.134,120.003 177.5,123C 179.112,123.72 180.612,123.554 182,122.5C 182.495,120.527 182.662,118.527 182.5,116.5C 183.775,119.396 183.775,122.396 182.5,125.5C 179.721,125.721 177.054,125.388 174.5,124.5C 174.829,121.772 174.163,119.438 172.5,117.5C 172.5,116.167 172.5,114.833 172.5,113.5 Z"/></g>
<g><path style="opacity:0.601" fill="#21415e" d="M 399.5,119.5 C 399.5,119.833 399.5,120.167 399.5,120.5C 395.575,120.43 391.909,121.097 388.5,122.5C 385.518,123.165 382.352,123.498 379,123.5C 374.228,123.692 369.728,123.025 365.5,121.5C 376.925,121.799 388.258,121.133 399.5,119.5 Z"/></g>
<g><path style="opacity:0.067" fill="#081827" d="M 399.5,120.5 C 396.091,121.903 392.425,122.57 388.5,122.5C 391.909,121.097 395.575,120.43 399.5,120.5 Z"/></g>
<g><path style="opacity:0.616" fill="#5f4b22" d="M 45.5,120.5 C 45.5,121.167 45.5,121.833 45.5,122.5C 43.0202,123.242 40.6869,124.242 38.5,125.5C 38.8333,124.833 39.1667,124.167 39.5,123.5C 41.1815,121.992 43.1815,120.992 45.5,120.5 Z"/></g>
<g><path style="opacity:0.482" fill="#1c2e3a" d="M 193.5,122.5 C 193.833,122.5 194.167,122.5 194.5,122.5C 197.167,122.5 199.833,122.5 202.5,122.5C 202.833,122.5 203.167,122.5 203.5,122.5C 201.799,123.734 199.799,124.401 197.5,124.5C 195.645,124.66 194.312,123.993 193.5,122.5 Z"/></g>
<g><path style="opacity:0.736" fill="#46769d" d="M 507.5,79.5 C 508.641,93.6733 508.641,108.007 507.5,122.5C 496.402,123.819 485.402,123.819 474.5,122.5C 484.692,123.107 494.692,122.441 504.5,120.5C 506.021,116.324 506.855,111.991 507,107.5C 507.5,98.1726 507.666,88.8393 507.5,79.5 Z"/></g>
<g><path style="opacity:1" fill="#cba658" d="M 99.5,117.5 C 93.1621,120.841 86.8287,124.174 80.5,127.5C 80.281,126.325 80.6143,125.325 81.5,124.5C 84.7145,124.05 87.3811,122.717 89.5,120.5C 91.5,119.833 93.5,119.167 95.5,118.5C 96.7079,117.766 98.0413,117.433 99.5,117.5 Z"/></g>
<g><path style="opacity:0.18" fill="#122133" d="M 509.5,113.5 C 510.029,117.351 509.362,120.851 507.5,124C 497.855,125.195 488.188,125.528 478.5,125C 475.543,124.721 472.877,123.887 470.5,122.5C 471.833,122.5 473.167,122.5 474.5,122.5C 485.402,123.819 496.402,123.819 507.5,122.5C 508.167,119.5 508.833,116.5 509.5,113.5 Z"/></g>
<g><path style="opacity:0.067" fill="#241703" d="M 39.5,123.5 C 39.1667,124.167 38.8333,124.833 38.5,125.5C 37.5084,125.328 36.8417,125.662 36.5,126.5C 35.8333,126.5 35.1667,126.5 34.5,126.5C 35.6594,124.75 37.326,123.75 39.5,123.5 Z"/></g>
<g><path style="opacity:1" fill="#f0bc46" d="M 59.5,115.5 C 60.1667,115.5 60.8333,115.5 61.5,115.5C 62.8062,116.467 63.4729,117.801 63.5,119.5C 65.9201,119.292 68.2534,119.626 70.5,120.5C 72.1161,119.885 73.4495,118.885 74.5,117.5C 75.086,117.709 75.586,118.043 76,118.5C 78.4607,117.782 80.9607,117.115 83.5,116.5C 84.8448,117.347 85.8448,118.513 86.5,120C 87.448,120.483 88.448,120.649 89.5,120.5C 87.3811,122.717 84.7145,124.05 81.5,124.5C 80.6143,125.325 80.281,126.325 80.5,127.5C 80.1667,127.5 79.8333,127.5 79.5,127.5C 76.6067,127.031 74.6067,128.031 73.5,130.5C 69.3548,131.344 66.0215,133.344 63.5,136.5C 60.0211,137.204 56.6877,138.37 53.5,140C 52.695,141.113 52.0283,142.279 51.5,143.5C 50.0413,143.433 48.7079,143.766 47.5,144.5C 44.5342,144.11 41.8676,144.777 39.5,146.5C 36.8233,145.926 34.1566,145.259 31.5,144.5C 32.1667,143.833 32.8333,143.167 33.5,142.5C 29.8093,140.993 26.476,138.993 23.5,136.5C 28.1667,134.833 32.8333,133.167 37.5,131.5C 37.4208,130.07 37.7542,128.736 38.5,127.5C 42.4634,125.12 46.7968,124.12 51.5,124.5C 51.2525,122.142 51.9192,120.142 53.5,118.5C 55.7496,117.87 57.7496,116.87 59.5,115.5 Z"/></g>
<g><path style="opacity:0.216" fill="#152634" d="M 174.5,124.5 C 177.054,125.388 179.721,125.721 182.5,125.5C 181.378,126.156 180.045,126.489 178.5,126.5C 176.667,126.415 175.334,125.748 174.5,124.5 Z"/></g>
<g><path style="opacity:0.986" fill="#3f6c91" d="M 269.5,79.5 C 272.777,79.2161 275.943,79.5495 279,80.5C 279.5,94.8295 279.667,109.163 279.5,123.5C 277.833,127.167 275.167,129.833 271.5,131.5C 270.833,131.5 270.167,131.5 269.5,131.5C 260.833,131.5 252.167,131.5 243.5,131.5C 243.5,128.5 243.5,125.5 243.5,122.5C 249.358,122.822 255.025,122.489 260.5,121.5C 263.187,121.664 265.854,121.497 268.5,121C 269.423,118.959 269.756,116.792 269.5,114.5C 270.461,116.265 270.795,118.265 270.5,120.5C 269.657,122.173 268.324,123.34 266.5,124C 259.174,124.5 251.841,124.666 244.5,124.5C 244.5,126.5 244.5,128.5 244.5,130.5C 255.062,131.175 265.395,130.175 275.5,127.5C 275.517,125.435 275.85,123.435 276.5,121.5C 277.66,108.673 277.827,95.6732 277,82.5C 274.25,81.7089 271.417,81.7089 268.5,82.5C 269.11,81.609 269.443,80.609 269.5,79.5 Z"/></g>
<g><path style="opacity:0.627" fill="#5c451f" d="M 34.5,126.5 C 35.1667,126.5 35.8333,126.5 36.5,126.5C 34.8185,128.008 32.8185,129.008 30.5,129.5C 29.8333,129.5 29.1667,129.5 28.5,129.5C 30.1815,127.992 32.1815,126.992 34.5,126.5 Z"/></g>
<g><path style="opacity:0.063" fill="#122434" d="M 279.5,123.5 C 279.5,128.833 276.833,131.5 271.5,131.5C 275.167,129.833 277.833,127.167 279.5,123.5 Z"/></g>
<g><path style="opacity:1" fill="#d4ae5c" d="M 79.5,127.5 C 77.8185,129.008 75.8185,130.008 73.5,130.5C 74.6067,128.031 76.6067,127.031 79.5,127.5 Z"/></g>
<g><path style="opacity:0.227" fill="#101925" d="M 91.5,131.5 C 89.2362,130.781 86.9029,130.448 84.5,130.5C 87.1363,127.74 89.4697,128.073 91.5,131.5 Z"/></g>
<g><path style="opacity:0.129" fill="#311d0c" d="M 28.5,129.5 C 27.713,131.104 26.3797,131.771 24.5,131.5C 25.5137,130.326 26.847,129.66 28.5,129.5 Z"/></g>
<g><path style="opacity:0.282" fill="#0f202c" d="M 84.5,130.5 C 84.0269,131.906 83.0269,132.573 81.5,132.5C 81.9731,131.094 82.9731,130.427 84.5,130.5 Z"/></g>
<g><path style="opacity:0.327" fill="#1a2d3f" d="M 248.5,121.5 C 252.5,121.5 256.5,121.5 260.5,121.5C 255.025,122.489 249.358,122.822 243.5,122.5C 243.5,125.5 243.5,128.5 243.5,131.5C 252.167,131.5 260.833,131.5 269.5,131.5C 263.825,132.274 257.992,132.941 252,133.5C 248.782,133.064 245.616,132.398 242.5,131.5C 241.425,128.562 241.259,125.562 242,122.5C 244.041,121.577 246.208,121.244 248.5,121.5 Z"/></g>
<g><path style="opacity:0.29" fill="#362611" d="M 24.5,131.5 C 24.0269,132.906 23.0269,133.573 21.5,133.5C 21.9731,132.094 22.9731,131.427 24.5,131.5 Z"/></g>
<g><path style="opacity:0.957" fill="#cfa856" d="M 73.5,130.5 C 72.1667,131.833 70.8333,133.167 69.5,134.5C 67.4214,134.971 65.4214,135.637 63.5,136.5C 66.0215,133.344 69.3548,131.344 73.5,130.5 Z"/></g>
<g><path style="opacity:1" fill="#e3b751" d="M 53.5,118.5 C 51.9192,120.142 51.2525,122.142 51.5,124.5C 46.7968,124.12 42.4634,125.12 38.5,127.5C 37.7542,128.736 37.4208,130.07 37.5,131.5C 32.8333,133.167 28.1667,134.833 23.5,136.5C 20.994,137.75 18.3274,138.416 15.5,138.5C 17.1815,136.992 19.1815,135.992 21.5,135.5C 25.3696,134.737 28.3696,132.737 30.5,129.5C 32.8185,129.008 34.8185,128.008 36.5,126.5C 36.8417,125.662 37.5084,125.328 38.5,125.5C 40.6869,124.242 43.0202,123.242 45.5,122.5C 48.4119,121.571 51.0786,120.238 53.5,118.5 Z"/></g>
<g><path style="opacity:1" fill="#b29653" d="M 28.5,129.5 C 29.1667,129.5 29.8333,129.5 30.5,129.5C 28.3696,132.737 25.3696,134.737 21.5,135.5C 21.5,134.833 21.5,134.167 21.5,133.5C 23.0269,133.573 24.0269,132.906 24.5,131.5C 26.3797,131.771 27.713,131.104 28.5,129.5 Z"/></g>
<g><path style="opacity:0.596" fill="#243950" d="M 81.5,132.5 C 80.3933,134.969 78.3933,135.969 75.5,135.5C 77.1815,133.992 79.1815,132.992 81.5,132.5 Z"/></g>
<g><path style="opacity:0.635" fill="#4b3b1c" d="M 21.5,133.5 C 21.5,134.167 21.5,134.833 21.5,135.5C 19.1815,135.992 17.1815,136.992 15.5,138.5C 14.391,138.557 13.391,138.89 12.5,139.5C 10.0221,140.883 7.35539,141.883 4.5,142.5C 9.65205,138.755 15.3187,135.755 21.5,133.5 Z"/></g>
<g><path style="opacity:0.349" fill="#46351a" d="M 69.5,134.5 C 66.0242,137.623 62.0242,139.957 57.5,141.5C 59.1307,139.357 61.1307,137.69 63.5,136.5C 65.4214,135.637 67.4214,134.971 69.5,134.5 Z"/></g>
<g><path style="opacity:1" fill="#3e74a2" d="M 84.5,130.5 C 86.9029,130.448 89.2362,130.781 91.5,131.5C 92.1935,140.302 88.1935,144.802 79.5,145C 76.5674,143.729 73.9007,142.062 71.5,140C 73.0414,138.629 74.3747,137.129 75.5,135.5C 78.3933,135.969 80.3933,134.969 81.5,132.5C 83.0269,132.573 84.0269,131.906 84.5,130.5 Z"/></g>
<g><path style="opacity:1" fill="#317dbd" d="M 85.5,134.5 C 86.8333,134.5 88.1667,134.5 89.5,134.5C 88.5514,141.578 84.5514,144.078 77.5,142C 80.3378,139.662 83.0045,137.162 85.5,134.5 Z"/></g>
<g><path style="opacity:0.973" fill="#c0a15a" d="M 63.5,136.5 C 61.1307,137.69 59.1307,139.357 57.5,141.5C 55.5168,141.157 54.1834,141.824 53.5,143.5C 52.8333,143.5 52.1667,143.5 51.5,143.5C 52.0283,142.279 52.695,141.113 53.5,140C 56.6877,138.37 60.0211,137.204 63.5,136.5 Z"/></g>
<g><path style="opacity:1" fill="#ad9350" d="M 12.5,139.5 C 11.2921,142.044 9.29211,143.378 6.5,143.5C 4.19641,144.871 2.19641,146.704 0.5,149C 0.989131,150.138 1.32246,151.305 1.5,152.5C 0.833333,152.167 0.166667,151.833 -0.5,151.5C -0.5,149.833 -0.5,148.167 -0.5,146.5C 1.16667,145.5 2.5,144.167 3.5,142.5C 3.83333,142.5 4.16667,142.5 4.5,142.5C 7.35539,141.883 10.0221,140.883 12.5,139.5 Z"/></g>
<g><path style="opacity:0.035" fill="#3a3112" d="M 57.5,141.5 C 56.4863,142.674 55.153,143.34 53.5,143.5C 54.1834,141.824 55.5168,141.157 57.5,141.5 Z"/></g>
<g><path style="opacity:0.235" fill="#312812" d="M 3.5,142.5 C 2.5,144.167 1.16667,145.5 -0.5,146.5C -0.5,145.833 -0.5,145.167 -0.5,144.5C 0.60486,143.4 1.93819,142.733 3.5,142.5 Z"/></g>
<g><path style="opacity:1" fill="#efbc46" d="M 23.5,136.5 C 26.476,138.993 29.8093,140.993 33.5,142.5C 32.8333,143.167 32.1667,143.833 31.5,144.5C 34.1566,145.259 36.8233,145.926 39.5,146.5C 41.8676,144.777 44.5342,144.11 47.5,144.5C 47.5,144.833 47.5,145.167 47.5,145.5C 47.1667,145.5 46.8333,145.5 46.5,145.5C 44.0672,145.273 42.4006,146.273 41.5,148.5C 40.8333,148.5 40.5,148.833 40.5,149.5C 37.2288,149.354 34.8955,150.688 33.5,153.5C 32.391,153.557 31.391,153.89 30.5,154.5C 28.079,154.878 25.7457,155.545 23.5,156.5C 17.6047,156.346 11.6047,156.013 5.5,155.5C 3.75732,154.359 2.75732,152.692 2.5,150.5C 3.57609,148.014 4.90943,145.681 6.5,143.5C 9.29211,143.378 11.2921,142.044 12.5,139.5C 13.391,138.89 14.391,138.557 15.5,138.5C 18.3274,138.416 20.994,137.75 23.5,136.5 Z"/></g>
<g><path style="opacity:0.49" fill="#6b522c" d="M 51.5,143.5 C 52.1667,143.5 52.8333,143.5 53.5,143.5C 52.4863,144.674 51.153,145.34 49.5,145.5C 48.8333,145.5 48.1667,145.5 47.5,145.5C 47.5,145.167 47.5,144.833 47.5,144.5C 48.7079,143.766 50.0413,143.433 51.5,143.5 Z"/></g>
<g><path style="opacity:0.118" fill="#162737" d="M 91.5,131.5 C 94.0264,138.294 91.693,143.127 84.5,146C 78.9954,146.721 74.1621,145.221 70,141.5C 70.5187,138.474 72.352,136.474 75.5,135.5C 74.3747,137.129 73.0414,138.629 71.5,140C 73.9007,142.062 76.5674,143.729 79.5,145C 88.1935,144.802 92.1935,140.302 91.5,131.5 Z"/></g>
<g><path style="opacity:0.824" fill="#bd9f58" d="M 46.5,145.5 C 45.3406,147.25 43.674,148.25 41.5,148.5C 42.4006,146.273 44.0672,145.273 46.5,145.5 Z"/></g>
<g><path style="opacity:0.157" fill="#443616" d="M 46.5,145.5 C 46.8333,145.5 47.1667,145.5 47.5,145.5C 48.1667,145.5 48.8333,145.5 49.5,145.5C 46.9922,147.924 43.9922,149.59 40.5,150.5C 40.5,150.167 40.5,149.833 40.5,149.5C 40.5,148.833 40.8333,148.5 41.5,148.5C 43.674,148.25 45.3406,147.25 46.5,145.5 Z"/></g>
<g><path style="opacity:0.996" fill="#bb9c5b" d="M 40.5,149.5 C 40.5,149.833 40.5,150.167 40.5,150.5C 38.1523,150.592 36.4856,151.592 35.5,153.5C 34.8333,153.5 34.1667,153.5 33.5,153.5C 34.8955,150.688 37.2288,149.354 40.5,149.5 Z"/></g>
<g><path style="opacity:0.518" fill="#594529" d="M 40.5,150.5 C 39.3406,152.25 37.674,153.25 35.5,153.5C 36.4856,151.592 38.1523,150.592 40.5,150.5 Z"/></g>
<g><path style="opacity:0.945" fill="#c9a956" d="M 6.5,143.5 C 4.90943,145.681 3.57609,148.014 2.5,150.5C 2.75732,152.692 3.75732,154.359 5.5,155.5C 5.73286,157.062 6.39952,158.395 7.5,159.5C 4.34814,158.221 2.34814,155.888 1.5,152.5C 1.32246,151.305 0.989131,150.138 0.5,149C 2.19641,146.704 4.19641,144.871 6.5,143.5 Z"/></g>
<g><path style="opacity:0.941" fill="#c6a65d" d="M 30.5,154.5 C 27.9922,156.924 24.9922,158.59 21.5,159.5C 22.1667,158.5 22.8333,157.5 23.5,156.5C 25.7457,155.545 28.079,154.878 30.5,154.5 Z"/></g>
<g><path style="opacity:0.102" fill="#4d3919" d="M 33.5,153.5 C 34.1667,153.5 34.8333,153.5 35.5,153.5C 27.9379,160.308 19.2713,162.975 9.5,161.5C 9.5,161.167 9.5,160.833 9.5,160.5C 13.7016,160.817 17.7016,160.483 21.5,159.5C 24.9922,158.59 27.9922,156.924 30.5,154.5C 31.391,153.89 32.391,153.557 33.5,153.5 Z"/></g>
<g><path style="opacity:0.263" fill="#403116" d="M -0.5,151.5 C 0.166667,151.833 0.833333,152.167 1.5,152.5C 2.34814,155.888 4.34814,158.221 7.5,159.5C 7.84171,160.338 8.50838,160.672 9.5,160.5C 9.5,160.833 9.5,161.167 9.5,161.5C 7.69161,161.509 6.02494,161.009 4.5,160C 2.69974,158.188 1.03308,156.355 -0.5,154.5C -0.5,153.5 -0.5,152.5 -0.5,151.5 Z"/></g>
<g><path style="opacity:1" fill="#e4b851" d="M 5.5,155.5 C 11.6047,156.013 17.6047,156.346 23.5,156.5C 22.8333,157.5 22.1667,158.5 21.5,159.5C 17.7016,160.483 13.7016,160.817 9.5,160.5C 8.50838,160.672 7.84171,160.338 7.5,159.5C 6.39952,158.395 5.73286,157.062 5.5,155.5 Z"/></g>
</svg>
